<?xml version="1.0" standalone="no"?>
<!DOCTYPE svg PUBLIC "-//W3C//DTD SVG 20010904//EN"
 "http://www.w3.org/TR/2001/REC-SVG-20010904/DTD/svg10.dtd">
<svg version="1.0" xmlns="http://www.w3.org/2000/svg"
 width="512.000000pt" height="512.000000pt" viewBox="0 0 512.000000 512.000000"
 preserveAspectRatio="xMidYMid meet">
<metadata>
Created by potrace 1.14, written by Peter Selinger 2001-2017
</metadata>
<g transform="translate(0.000000,512.000000) scale(0.100000,-0.100000)"
fill="#000000" stroke="none">
<path d="M2136 4963 c-4 -5 -33 -9 -64 -9 -175 -5 -272 -10 -272 -14 0 -3 -15
-5 -33 -6 -33 -1 -90 -9 -142 -19 -16 -4 -39 -8 -50 -9 -11 -2 -27 -6 -35 -9
-8 -4 -26 -9 -40 -11 -44 -9 -64 -14 -91 -24 -15 -6 -30 -8 -33 -5 -3 4 -6 1
-6 -5 0 -7 -3 -11 -7 -10 -5 2 -35 -7 -68 -19 -33 -12 -63 -21 -66 -20 -3 1
-13 -6 -23 -15 -10 -10 -26 -18 -36 -18 -10 0 -25 -6 -32 -12 -12 -12 -81 -47
-93 -48 -2 0 -17 -12 -32 -26 -15 -14 -33 -22 -42 -19 -8 3 -12 3 -8 -1 4 -4
-12 -21 -36 -38 -23 -17 -48 -36 -55 -43 -8 -7 -18 -11 -23 -7 -5 3 -8 2 -7
-3 3 -11 -89 -103 -104 -103 -6 0 -9 -3 -5 -6 3 -3 -7 -19 -24 -35 -16 -15
-24 -31 -19 -34 6 -3 10 -4 10 0 0 3 9 1 20 -5 11 -6 18 -16 14 -21 -4 -7 3
-6 16 1 18 10 21 9 15 -1 -6 -9 -3 -10 10 -6 9 4 24 2 31 -4 8 -6 21 -9 29 -5
9 3 14 2 11 -2 -2 -4 3 -16 11 -27 15 -19 15 -19 8 5 -4 16 -3 20 3 12 5 -7
16 -10 25 -6 17 6 21 -3 18 -36 -1 -8 5 -4 12 9 9 16 17 20 21 12 4 -6 12 -9
17 -5 5 3 9 2 8 -3 -1 -4 3 -19 10 -33 11 -25 11 -25 7 5 -3 17 -3 24 0 17 3
-6 11 -9 17 -5 7 4 8 0 3 -12 -6 -16 -4 -16 11 -4 14 12 16 12 8 0 -6 -11 -4
-13 8 -8 10 3 17 2 17 -3 0 -6 5 -10 11 -10 5 0 7 5 3 12 -5 7 -3 8 5 4 7 -5
10 -10 7 -13 -3 -3 2 -12 10 -20 12 -12 18 -13 29 -3 18 15 20 -1 3 -19 -11
-11 -9 -11 9 0 12 7 19 18 15 24 -3 5 1 5 9 -2 8 -6 18 -11 24 -11 12 -1 24
-34 17 -46 -3 -5 0 -6 7 -2 7 5 10 14 7 22 -3 8 0 11 10 7 17 -6 17 -8 3 -36
-10 -21 -10 -21 5 -3 11 14 16 15 16 6 0 -9 5 -8 15 6 15 18 16 18 13 -5 -2
-15 3 -26 12 -28 12 -4 12 -3 2 5 -11 7 -10 11 3 16 10 3 23 2 30 -4 6 -5 16
-6 20 -2 5 4 4 1 0 -7 -6 -11 -4 -13 8 -8 9 3 19 2 22 -3 3 -5 -3 -11 -12 -13
-16 -4 -16 -5 -1 -6 9 0 20 4 23 9 5 8 11 7 21 0 11 -10 13 -5 10 24 -1 20 1
41 5 48 4 7 5 17 1 22 -11 19 -7 61 8 73 13 10 13 12 -2 18 -16 6 -16 8 -2 22
9 9 12 19 7 22 -4 3 -9 15 -10 26 -1 11 0 15 3 8 3 -7 11 -10 19 -7 7 3 16 0
20 -5 3 -6 12 -8 18 -5 8 5 8 3 0 -7 -7 -7 -13 -18 -13 -23 0 -6 4 -5 8 2 5 7
19 14 32 17 12 2 19 1 16 -3 -4 -4 -13 -7 -18 -7 -6 0 -13 -7 -15 -15 -4 -13
-3 -13 6 0 10 14 16 7 12 -13 -1 -5 3 -6 9 -2 6 3 8 10 5 15 -9 15 23 19 35 5
7 -8 17 -12 23 -8 6 4 8 0 4 -11 -6 -14 -3 -15 13 -6 12 6 20 7 20 1 0 -5 -4
-11 -9 -13 -5 -1 -2 -10 7 -18 14 -13 15 -12 9 3 -3 9 -2 19 2 22 12 7 21 -31
10 -44 -6 -8 -5 -8 3 -1 8 6 16 4 25 -8 8 -10 7 -3 -3 18 -14 28 -14 33 -2 23
8 -7 19 -9 23 -5 5 4 5 2 2 -4 -4 -7 3 -11 20 -11 15 0 29 -6 31 -12 2 -6 8
-9 13 -6 5 4 6 -1 2 -11 -5 -14 -3 -15 17 -4 20 11 22 10 17 -3 -3 -9 1 -21
10 -28 19 -16 45 -21 37 -7 -11 18 49 -1 64 -19 8 -11 12 -12 12 -4 0 8 5 7
16 -4 9 -9 23 -14 31 -11 8 3 11 1 8 -4 -5 -9 8 -14 19 -7 2 1 13 -6 23 -16
11 -9 23 -14 26 -10 4 3 7 1 7 -6 0 -7 4 -10 9 -6 5 3 12 1 16 -5 4 -6 11 -7
17 -4 7 5 8 2 3 -6 -6 -10 -4 -12 8 -7 10 4 20 0 26 -11 5 -9 13 -17 18 -17 4
0 7 -3 6 -7 -5 -13 15 -9 20 5 4 10 6 10 6 0 1 -7 8 -13 16 -13 8 0 15 -5 15
-10 0 -7 -6 -7 -19 0 -15 7 -22 7 -27 -2 -4 -7 -3 -10 1 -5 5 4 19 0 31 -8 17
-11 25 -12 30 -3 5 7 3 8 -6 3 -9 -5 -11 -4 -6 4 10 16 29 2 21 -16 -4 -13 -3
-14 10 -3 13 11 14 10 8 -6 -6 -16 -5 -17 9 -6 16 13 28 7 148 -67 14 -9 28
-16 31 -16 3 0 13 -8 23 -18 10 -9 22 -14 28 -11 7 4 8 2 4 -4 -6 -10 16 -18
27 -9 8 5 36 -26 31 -35 -3 -5 0 -8 7 -7 23 4 49 -12 42 -25 -11 -17 -12 -35
-3 -41 5 -3 7 3 5 14 -5 25 25 38 37 16 5 -8 15 -15 23 -15 14 0 35 -29 35
-50 0 -6 -5 -8 -12 -4 -6 4 -8 3 -5 -4 8 -11 25 -11 45 2 13 8 72 -13 72 -26
0 -5 5 -8 10 -8 17 0 60 -47 52 -56 -4 -5 1 -2 11 5 12 10 17 10 17 2 0 -7 5
-9 12 -5 7 4 8 3 4 -4 -3 -6 3 -16 14 -22 11 -6 20 -8 20 -5 0 3 10 -3 22 -15
12 -11 34 -26 50 -32 15 -7 28 -17 28 -21 0 -5 -4 -6 -8 -3 -4 2 -14 0 -22 -6
-12 -8 -12 -9 3 -4 9 3 17 0 17 -6 0 -6 6 -5 17 3 15 12 16 12 10 -5 -6 -16
-5 -17 8 -6 12 10 16 9 21 -3 3 -8 19 -21 35 -27 16 -7 27 -15 25 -19 -3 -4 9
-13 25 -20 16 -7 29 -17 29 -23 0 -6 -6 -6 -15 2 -10 9 -15 9 -15 1 0 -10 14
-15 34 -12 5 1 16 -5 25 -13 9 -8 21 -14 26 -13 6 0 12 -8 13 -17 3 -12 0 -16
-7 -11 -6 3 -8 12 -5 18 5 9 4 9 -6 0 -10 -9 -10 -15 3 -27 14 -14 16 -14 21
0 5 13 9 14 21 4 20 -17 19 -31 -2 -23 -15 6 -16 5 -3 -9 13 -14 16 -14 26 0
10 14 12 13 21 -2 5 -10 13 -17 16 -17 11 1 86 -53 87 -63 0 -5 -6 -3 -14 3
-10 8 -16 9 -21 1 -4 -6 -1 -9 7 -8 7 2 12 -3 10 -10 -2 -10 2 -10 18 -2 23
12 22 13 25 -17 1 -13 -2 -23 -8 -23 -6 0 -7 -3 -4 -6 4 -4 14 -1 23 6 10 9
18 10 22 3 4 -6 21 -17 38 -26 18 -9 43 -30 57 -47 14 -16 31 -30 37 -30 6 0
9 -3 7 -7 -5 -8 17 -33 28 -33 22 -1 32 -15 29 -43 -3 -22 -1 -28 5 -17 6 8 7
18 5 22 -3 4 -1 8 4 8 6 0 13 -7 16 -16 3 -8 11 -12 16 -9 6 4 10 3 9 -2 -3
-19 2 -33 12 -33 5 0 7 5 3 12 -4 7 -3 8 5 4 8 -5 9 -12 2 -20 -7 -8 -4 -16
10 -24 11 -7 17 -17 14 -22 -3 -6 -1 -10 4 -10 16 0 14 11 -6 32 -21 24 -12
23 17 -2 20 -17 21 -22 9 -37 -11 -15 -11 -16 1 -5 19 17 35 15 21 -2 -9 -11
-9 -16 0 -22 8 -4 9 -3 5 4 -4 7 -1 12 7 12 8 0 18 -7 21 -16 3 -8 11 -12 17
-8 8 4 9 3 5 -5 -6 -9 -11 -9 -21 -1 -10 8 -15 8 -21 -1 -4 -7 -3 -9 3 -6 13
8 46 -27 36 -38 -5 -4 -2 -5 4 -1 7 4 20 -2 30 -13 12 -15 20 -18 30 -9 10 8
13 6 13 -6 0 -9 3 -15 8 -14 4 2 7 -1 7 -5 0 -5 11 -15 25 -24 14 -8 18 -12 9
-10 -9 3 -16 -1 -16 -8 0 -7 7 -11 15 -8 8 3 24 -6 36 -20 13 -15 26 -25 30
-22 3 3 1 -1 -4 -7 -9 -10 -13 -10 -21 2 -9 13 -10 13 -6 0 2 -8 13 -15 24
-15 19 0 53 -26 53 -41 0 -5 -5 -3 -12 4 -7 7 -16 12 -20 12 -4 0 0 -8 10 -18
11 -11 20 -14 24 -8 4 6 10 7 14 3 4 -3 1 -13 -6 -22 -7 -9 -8 -15 -2 -15 6 0
12 6 15 13 2 6 8 9 12 5 4 -4 2 -16 -6 -25 -13 -16 -12 -17 4 -4 9 8 21 10 25
6 4 -4 2 -10 -5 -12 -13 -5 14 -43 30 -43 5 0 1 7 -8 16 -9 9 -14 19 -11 21 5
6 55 -47 56 -59 0 -4 -5 -10 -10 -13 -13 -8 -3 -25 13 -25 7 0 6 4 -3 10 -8 5
-13 10 -10 11 3 0 13 2 22 4 10 2 21 -2 25 -7 3 -7 1 -8 -5 -4 -7 4 -12 2 -12
-3 0 -6 7 -11 15 -11 8 0 15 -5 15 -11 0 -5 -5 -7 -12 -3 -7 4 -8 3 -4 -4 4
-6 14 -9 24 -6 14 5 13 2 -3 -11 -20 -16 -19 -16 6 -10 18 4 30 1 40 -12 13
-16 13 -17 -4 -4 -9 8 -20 11 -23 9 -3 -3 9 -12 25 -19 18 -8 35 -26 40 -41
11 -30 24 -40 15 -10 -5 14 -4 14 4 2 6 -8 8 -18 6 -22 -3 -4 0 -16 6 -25 11
-16 11 -16 6 -1 -3 10 0 20 6 24 7 4 8 3 4 -4 -4 -7 -2 -12 4 -12 6 0 8 -4 5
-10 -3 -5 1 -10 9 -10 8 0 18 -9 21 -20 4 -11 11 -17 17 -14 6 4 8 2 5 -3 -4
-6 0 -14 9 -17 11 -4 13 -12 8 -28 -6 -21 -5 -22 12 -8 10 8 16 11 13 7 -4 -4
9 -23 28 -42 19 -19 32 -39 28 -45 -3 -5 1 -10 9 -10 9 0 16 -4 16 -10 0 -5
11 -21 25 -35 23 -22 22 -38 0 -16 -6 5 -21 12 -35 15 -14 4 -5 -4 20 -16 50
-25 87 -58 68 -59 -7 0 -3 -5 8 -11 12 -5 27 -21 33 -34 6 -13 15 -24 21 -24
5 0 10 -6 10 -14 0 -8 8 -17 18 -21 16 -6 16 -7 -2 -21 -24 -17 -16 -18 17 -3
17 8 23 17 20 30 -3 11 0 19 7 19 7 0 10 6 7 14 -3 8 1 20 8 26 8 7 12 17 8
23 -4 6 0 8 10 4 8 -3 18 0 21 8 3 9 0 12 -10 8 -9 -3 -14 1 -14 12 0 9 4 14
9 11 5 -3 12 1 15 10 4 10 2 13 -6 8 -8 -5 -9 -2 -4 12 8 19 14 41 15 57 1 5
7 5 14 1 9 -5 9 -4 0 6 -14 15 -5 43 11 33 6 -4 4 2 -4 12 -14 17 -13 18 3 12
14 -5 16 -3 8 11 -12 22 2 47 20 38 9 -5 9 -3 -1 6 -18 15 -25 48 -11 48 5 0
8 9 6 20 -2 11 1 20 7 20 6 0 5 7 -3 17 -12 14 -12 16 2 11 9 -4 16 -1 16 8 0
7 -5 11 -10 7 -5 -3 -6 4 -1 18 4 13 7 33 6 44 -1 10 4 26 11 34 9 11 9 13 0
8 -8 -5 -10 -1 -7 15 10 46 10 78 0 78 -7 0 -8 3 -1 8 12 8 14 192 3 192 -5 0
-8 5 -8 11 0 5 6 7 13 3 10 -6 10 -4 0 7 -15 15 -17 33 -3 24 5 -3 3 7 -5 22
-15 28 -3 49 19 36 5 -3 6 -1 2 5 -4 6 -12 9 -19 6 -15 -5 -17 33 -4 54 5 7 5
12 0 11 -20 -4 -24 2 -12 18 10 11 10 14 2 9 -9 -5 -13 -1 -14 11 0 10 -2 25
-4 33 -2 8 -6 24 -9 35 -2 11 -11 46 -20 79 -9 32 -13 63 -9 69 3 6 1 7 -5 3
-11 -7 -13 -3 -16 37 -1 6 -5 15 -9 18 -4 3 -9 16 -10 27 -1 12 -6 22 -11 22
-5 0 -7 3 -3 6 3 3 -3 23 -14 45 -12 21 -18 43 -15 48 4 5 -2 14 -11 20 -10 6
-13 11 -8 11 6 0 4 4 -3 9 -8 5 -15 20 -15 34 -1 14 -5 23 -8 21 -3 -2 -12 9
-20 24 -7 15 -26 48 -42 74 -16 26 -26 52 -22 58 4 6 2 9 -5 8 -6 -2 -18 10
-28 27 -9 16 -23 36 -30 43 -7 7 -10 18 -6 23 3 5 2 8 -3 7 -4 -2 -10 2 -13 7
-2 6 -15 20 -27 33 -13 13 -21 27 -18 32 2 4 -5 10 -16 13 -14 4 -20 11 -16
21 4 9 3 15 -2 13 -4 -1 -25 18 -47 43 -21 25 -49 55 -62 68 -12 12 -20 27
-17 33 4 5 3 9 -2 8 -18 -3 -33 2 -33 11 0 5 -11 20 -25 34 -14 14 -25 23 -25
21 0 -3 -8 3 -18 13 -11 9 -17 20 -15 25 2 4 -1 7 -8 7 -6 0 -29 18 -51 40
-22 22 -45 40 -50 40 -5 0 -6 5 -3 10 4 6 3 9 -2 8 -14 -5 -73 45 -66 55 3 6
1 7 -5 3 -6 -3 -17 1 -25 9 -9 8 -21 15 -27 15 -7 0 -10 7 -7 14 4 10 1 13 -8
9 -8 -3 -18 2 -21 11 -3 9 -10 13 -15 10 -5 -3 -9 0 -9 5 0 6 -7 11 -15 11 -8
0 -15 4 -15 8 0 5 -12 15 -27 23 -16 8 -30 16 -33 19 -3 4 -30 21 -60 39 -30
19 -58 38 -61 43 -3 5 -10 10 -15 10 -18 1 -54 21 -54 30 0 5 -4 7 -9 3 -5 -3
-16 1 -24 9 -8 8 -17 12 -21 9 -3 -4 -6 -2 -6 3 0 5 -29 22 -64 38 -36 17 -62
34 -59 39 3 6 1 7 -5 3 -6 -4 -44 9 -84 29 -40 19 -79 35 -85 35 -7 0 -13 5
-13 11 0 5 -4 8 -8 5 -4 -2 -23 2 -42 11 -54 24 -106 44 -125 48 -43 11 -115
39 -115 46 0 5 -7 6 -15 3 -8 -3 -20 -2 -27 2 -7 4 -19 9 -28 10 -8 1 -24 5
-35 8 -11 3 -51 13 -90 23 -38 10 -72 20 -75 23 -3 3 -14 5 -25 6 -21 1 -87
12 -170 29 -16 4 -52 9 -80 11 -27 3 -55 10 -61 15 -8 7 -14 6 -19 -1 -3 -6
-11 -7 -18 -3 -11 7 -43 9 -165 12 -39 0 -61 5 -57 11 7 12 2 13 -9 3z m-1026
-709 c0 -8 -5 -12 -10 -9 -6 4 -8 11 -5 16 9 14 15 11 15 -7z m703 -21 c-4
-10 -9 -11 -19 -2 -19 15 -18 18 5 16 11 -1 17 -6 14 -14z m897 -473 c0 -19
-18 -19 -23 -1 -3 14 -1 18 9 14 8 -3 14 -9 14 -13z m1185 -920 c-3 -5 0 -10
8 -10 8 0 18 -7 21 -16 9 -25 4 -23 -29 8 -24 23 -26 28 -12 28 10 0 15 -4 12
-10z"/>
<path d="M1430 4380 c0 -5 5 -10 10 -10 6 0 10 5 10 10 0 6 -4 10 -10 10 -5 0
-10 -4 -10 -10z"/>
<path d="M780 4348 c-12 -8 -12 -9 2 -5 9 3 19 1 22 -6 3 -9 5 -9 5 0 1 18
-13 23 -29 11z"/>
<path d="M1437 4353 c-10 -9 -9 -23 1 -23 5 0 9 7 9 15 0 17 -1 18 -10 8z"/>
<path d="M1535 4340 c3 -5 11 -10 16 -10 6 0 7 5 4 10 -3 6 -11 10 -16 10 -6
0 -7 -4 -4 -10z"/>
<path d="M825 4329 c-4 -6 -5 -12 -2 -15 2 -3 7 2 10 11 7 17 1 20 -8 4z"/>
<path d="M764 4322 c4 -3 14 -7 22 -8 9 -1 13 0 10 4 -4 3 -14 7 -22 8 -9 1
-13 0 -10 -4z"/>
<path d="M882 4310 c-7 -11 -8 -20 -3 -20 9 0 24 30 18 36 -1 2 -8 -6 -15 -16z"/>
<path d="M933 4303 c4 -3 1 -13 -6 -21 -11 -13 -9 -14 10 -2 22 14 22 30 1 30
-6 0 -8 -3 -5 -7z"/>
<path d="M1556 4298 c3 -5 10 -6 15 -3 13 9 11 12 -6 12 -8 0 -12 -4 -9 -9z"/>
<path d="M1685 4281 c-9 -15 15 -25 28 -12 9 9 7 10 -7 5 -13 -5 -17 -4 -12 4
4 7 5 12 2 12 -3 0 -7 -4 -11 -9z"/>
<path d="M956 4267 c3 -10 9 -15 12 -12 3 3 0 11 -7 18 -10 9 -11 8 -5 -6z"/>
<path d="M1720 4249 c0 -5 -6 -7 -12 -3 -7 4 -9 3 -5 -1 13 -15 36 -14 30 1
-6 17 -13 18 -13 3z"/>
<path d="M1040 4239 c0 -5 5 -7 10 -4 6 3 10 8 10 11 0 2 -4 4 -10 4 -5 0 -10
-5 -10 -11z"/>
<path d="M1143 4217 c-4 -6 -1 -7 7 -2 10 6 12 4 7 -8 -3 -10 -3 -17 2 -17 5
0 11 8 13 18 6 20 -18 27 -29 9z"/>
<path d="M1870 4194 c0 -9 -5 -12 -12 -8 -7 4 -9 3 -5 -1 15 -17 35 -13 30 6
-6 23 -13 25 -13 3z"/>
<path d="M1900 4180 c0 -6 7 -10 15 -10 8 0 15 2 15 4 0 2 -7 6 -15 10 -8 3
-15 1 -15 -4z"/>
<path d="M1300 4160 c0 -5 5 -10 11 -10 5 0 7 5 4 10 -3 6 -8 10 -11 10 -2 0
-4 -4 -4 -10z"/>
<path d="M1935 4159 c-6 -8 -4 -10 5 -4 10 6 12 4 6 -11 -6 -15 -5 -17 5 -6 9
9 10 15 2 23 -8 8 -13 7 -18 -2z"/>
<path d="M1975 4150 c-4 -6 -4 -14 -1 -17 3 -4 6 0 6 8 0 12 2 12 10 -1 5 -8
12 -12 15 -9 3 4 -1 12 -9 18 -10 9 -16 9 -21 1z"/>
<path d="M2016 4114 c-4 -12 -2 -12 14 -4 19 10 24 6 21 -12 0 -5 4 -8 9 -8
14 0 12 17 -2 27 -21 13 -36 12 -42 -3z"/>
<path d="M2086 4101 c-4 -6 -2 -11 4 -11 6 0 9 -4 6 -9 -7 -11 21 -8 31 4 4 4
3 5 -4 1 -6 -3 -16 1 -21 10 -6 11 -11 13 -16 5z"/>
<path d="M2170 4021 c0 -6 4 -13 10 -16 6 -3 7 1 4 9 -7 18 -14 21 -14 7z"/>
<path d="M2252 4009 c2 -7 10 -15 17 -17 8 -3 12 1 9 9 -2 7 -10 15 -17 17 -8
3 -12 -1 -9 -9z"/>
<path d="M2296 3986 c3 -9 12 -16 19 -16 7 0 15 -6 18 -12 2 -7 7 -10 11 -7 4
4 -7 17 -23 29 -23 16 -29 17 -25 6z"/>
<path d="M2275 3960 c-3 -5 -1 -10 4 -10 6 0 11 5 11 10 0 6 -2 10 -4 10 -3 0
-8 -4 -11 -10z"/>
<path d="M2367 3948 c7 -8 10 -18 6 -22 -4 -4 0 -4 10 0 22 8 22 11 -5 25 -20
11 -21 10 -11 -3z"/>
<path d="M2423 3911 c0 -11 5 -18 9 -15 4 3 5 11 1 19 -7 21 -12 19 -10 -4z"/>
<path d="M2395 3910 c-3 -5 -1 -10 4 -10 6 0 11 5 11 10 0 6 -2 10 -4 10 -3 0
-8 -4 -11 -10z"/>
<path d="M2440 3886 c0 -2 7 -7 16 -10 8 -3 12 -2 9 4 -6 10 -25 14 -25 6z"/>
<path d="M2490 3869 c0 -5 5 -9 10 -9 6 0 12 0 15 0 14 0 8 13 -7 16 -10 1
-18 -2 -18 -7z"/>
<path d="M2553 3835 c0 -8 4 -12 9 -9 5 3 6 10 3 15 -9 13 -12 11 -12 -6z"/>
<path d="M2607 3799 c4 -13 8 -18 11 -10 2 7 -1 18 -6 23 -8 8 -9 4 -5 -13z"/>
<path d="M380 3757 c-6 -23 -14 -49 -17 -57 -6 -16 -9 -27 -11 -48 -1 -8 -7
-10 -14 -6 -10 6 -10 5 -1 -7 7 -9 8 -20 3 -28 -4 -8 -6 -21 -2 -29 3 -9 1
-13 -4 -9 -6 3 -9 -7 -8 -24 2 -25 -1 -29 -14 -24 -14 5 -15 4 -4 -6 18 -19
15 -49 -5 -49 -13 0 -14 -3 -6 -8 7 -4 10 -19 8 -32 -3 -14 -8 -47 -11 -75 -4
-27 -10 -55 -15 -60 -4 -6 -4 -17 1 -25 5 -8 5 -21 -1 -32 -7 -12 -6 -18 1
-18 6 0 9 -4 5 -9 -3 -6 6 -7 23 -2 21 6 29 5 29 -4 0 -7 -7 -11 -16 -8 -13 4
-13 3 -2 -5 16 -12 44 -4 35 9 -3 5 -1 9 5 9 5 0 12 -6 14 -12 4 -10 8 -10 15
1 8 11 11 9 17 -9 l7 -23 13 23 c9 16 14 19 17 9 4 -12 7 -12 21 0 12 9 17 10
17 2 0 -8 11 -10 29 -8 24 4 29 2 24 -11 -5 -14 -2 -13 17 3 13 11 20 14 16 7
-8 -14 19 -12 44 3 13 8 13 7 1 -8 -7 -9 -17 -14 -22 -11 -16 9 -10 -3 8 -17
11 -10 14 -10 9 -1 -4 6 -3 12 3 12 5 0 11 -3 14 -7 2 -5 2 -3 1 4 -2 6 4 14
12 17 24 9 36 7 29 -4 -4 -6 -11 -8 -16 -5 -5 3 -6 -1 -3 -9 5 -14 8 -14 21
-1 8 9 18 13 23 10 5 -3 11 -1 15 5 4 6 12 7 18 3 22 -14 49 -14 41 -1 -4 7 1
5 12 -4 14 -12 24 -14 37 -7 22 13 37 -18 16 -32 -10 -6 -6 -8 11 -5 14 3 25
5 25 6 0 1 8 3 18 5 9 2 17 -2 17 -8 0 -8 4 -7 9 2 5 8 14 10 22 5 10 -6 10
-3 -1 11 -13 16 -13 17 0 10 8 -5 28 -10 45 -12 16 -2 32 -8 33 -13 2 -6 8
-10 13 -10 6 0 8 4 5 8 -3 5 1 9 9 9 8 0 12 -4 9 -9 -3 -4 0 -8 5 -8 6 0 11 6
11 13 0 8 3 8 8 2 4 -6 15 -11 25 -12 9 0 25 -1 35 -2 11 0 24 -11 31 -23 l11
-23 -6 24 c-4 17 -2 22 7 19 8 -3 13 -12 11 -20 -1 -9 6 -22 15 -29 16 -13 17
-12 5 3 -10 12 -11 22 -3 35 6 10 11 13 11 7 0 -6 7 -11 15 -12 8 -1 22 -3 30
-4 11 -1 13 -8 9 -22 -6 -20 -5 -20 14 2 11 13 23 19 26 14 3 -5 17 -9 32 -9
14 0 30 -7 35 -14 7 -12 9 -11 9 1 0 10 3 11 8 4 4 -6 19 -10 34 -8 15 1 30
-2 34 -7 3 -5 10 -6 16 -3 7 4 8 2 4 -4 -4 -8 3 -10 24 -7 20 2 33 -2 40 -13
7 -13 9 -14 10 -3 0 11 4 9 15 -5 10 -12 14 -14 12 -4 -2 8 -2 12 0 7 3 -4 9
-5 14 -2 5 4 6 -2 2 -11 -4 -11 -3 -15 5 -11 6 4 12 2 15 -5 2 -7 2 -2 0 12
-3 24 -3 24 12 6 8 -10 12 -22 10 -26 -2 -4 2 -7 10 -8 8 -1 22 -3 30 -4 8 -1
15 -4 15 -7 0 -4 12 -7 28 -8 18 -1 22 0 10 5 -13 5 -15 11 -8 22 8 12 10 12
10 1 0 -7 6 -11 15 -8 8 4 17 2 21 -4 3 -6 12 -8 19 -5 7 2 17 0 21 -4 5 -5
21 -11 34 -14 15 -2 24 -9 22 -17 -3 -11 -1 -11 8 -3 9 9 18 8 38 -2 17 -8 28
-10 30 -4 2 6 9 7 14 4 7 -5 8 -2 3 6 -4 7 -9 45 -9 84 -1 39 -5 76 -9 83 -9
15 22 26 38 13 6 -5 15 -7 18 -3 4 3 13 0 21 -6 10 -8 16 -9 21 -1 3 5 4 11 1
11 -3 1 -9 2 -13 3 -5 1 -13 5 -20 9 -6 4 -13 2 -15 -4 -2 -7 -8 -6 -16 4 -10
12 -10 17 -1 23 8 5 9 3 4 -6 -6 -10 -4 -12 7 -7 9 3 21 0 27 -6 6 -6 11 -8
11 -4 0 4 13 1 29 -7 16 -9 31 -12 35 -9 3 4 6 1 6 -5 0 -7 3 -11 8 -11 20 3
43 -2 38 -9 -3 -4 11 -9 30 -9 36 -1 52 -8 42 -19 -4 -3 -15 -1 -25 4 -13 7
-24 7 -34 1 -12 -9 -12 -10 1 -6 8 2 27 -2 42 -10 15 -7 30 -13 33 -13 25 1
27 -1 14 -17 -11 -15 -11 -16 0 -6 7 6 19 9 26 7 7 -3 16 0 21 7 4 8 3 10 -4
5 -6 -4 -22 0 -35 9 -13 8 -27 12 -32 8 -4 -5 -5 -2 -1 5 5 9 12 9 27 1 12 -6
23 -8 27 -5 3 3 14 -2 25 -11 10 -10 22 -18 26 -17 18 3 41 -10 46 -27 4 -10
11 -19 17 -19 6 0 6 6 -2 15 -9 10 -9 15 -1 15 6 0 11 -5 11 -11 0 -6 9 -8 20
-4 12 4 20 2 20 -5 0 -6 4 -8 10 -5 5 3 8 0 5 -7 -3 -8 3 -14 17 -14 35 -3 51
-8 66 -22 8 -7 18 -9 24 -6 7 4 8 2 4 -4 -5 -9 -13 -9 -26 -2 -13 7 -21 7 -26
-2 -4 -6 -3 -8 4 -4 6 3 17 0 24 -7 11 -12 16 -12 26 -1 13 14 42 8 42 -8 0
-6 -6 -5 -15 2 -10 9 -15 9 -15 1 0 -6 5 -11 11 -11 5 0 7 -6 4 -12 -4 -7 3
-2 15 11 l21 24 -5 -25 c-4 -22 -1 -25 17 -21 22 4 22 4 3 -11 -11 -9 -15 -16
-9 -16 6 0 16 6 22 14 10 11 8 17 -6 25 -10 6 -13 11 -7 11 6 0 17 -7 24 -15
7 -8 16 -13 20 -10 5 3 15 -1 23 -9 8 -8 17 -12 21 -9 3 4 6 1 6 -5 0 -7 6
-11 13 -10 6 2 11 -2 10 -9 -1 -6 4 -14 12 -17 10 -3 12 0 9 12 -3 9 2 5 11
-10 18 -32 27 -37 19 -10 -4 12 -3 13 3 4 6 -7 14 -12 19 -10 5 1 20 -4 33
-11 24 -13 24 -14 5 -29 -18 -14 -18 -14 0 -8 12 4 23 0 31 -10 9 -14 14 -14
20 -4 5 8 4 11 -2 7 -11 -7 -28 22 -18 31 3 3 5 0 5 -6 0 -7 7 -12 15 -12 8 0
15 -4 15 -10 0 -5 11 -12 24 -16 15 -3 23 -11 20 -19 -3 -7 2 -15 10 -18 11
-4 13 -1 10 11 -5 14 -4 15 5 2 6 -8 11 -11 11 -6 0 5 8 2 17 -6 10 -8 26 -18
36 -21 19 -7 23 -27 5 -27 -6 0 -8 -3 -5 -6 4 -4 13 -1 22 6 10 8 15 9 15 1 0
-6 3 -10 8 -10 18 3 32 -2 32 -12 0 -6 -5 -7 -12 -2 -22 13 -37 12 -50 -5 -11
-15 -11 -15 4 -4 9 7 19 9 22 4 3 -5 19 -8 36 -7 16 1 30 -2 30 -7 0 -5 4 -7
9 -4 5 3 14 -1 21 -9 7 -8 15 -13 19 -10 4 2 19 -7 34 -21 15 -14 27 -22 27
-18 0 4 10 -2 23 -14 13 -12 27 -19 32 -15 4 5 5 2 1 -5 -4 -7 -12 -10 -17 -7
-5 4 -9 1 -9 -5 0 -6 -6 -8 -12 -4 -7 4 -10 3 -5 -1 9 -11 48 -14 41 -4 -2 4
5 7 17 6 31 -2 110 -83 102 -105 -6 -14 -5 -15 9 -2 15 14 15 16 -5 32 -12 10
-17 18 -11 18 6 0 19 -9 29 -20 15 -17 16 -22 4 -37 -11 -15 -10 -15 9 1 12
11 22 14 22 8 0 -7 6 -12 13 -12 7 0 23 -9 35 -20 12 -11 26 -20 32 -20 5 0
10 -5 10 -11 0 -5 4 -8 9 -4 6 3 15 -5 21 -17 9 -20 9 -21 -2 -7 -7 9 -17 16
-23 17 -5 1 -23 12 -40 25 -33 26 -70 42 -60 27 3 -6 11 -10 17 -10 5 0 23
-11 38 -24 23 -19 26 -26 17 -37 -10 -11 -9 -12 2 -2 14 12 44 6 36 -7 -3 -5
8 -7 23 -5 25 3 29 1 27 -20 -2 -17 1 -22 12 -18 12 5 12 7 1 15 -10 8 -10 9
2 5 8 -2 14 -12 14 -21 -1 -11 2 -14 10 -7 7 6 17 5 29 -4 13 -9 15 -15 7 -20
-9 -6 -9 -10 1 -16 20 -13 37 -11 19 2 -13 9 -13 10 0 6 9 -2 14 -14 13 -28
-2 -21 -1 -22 8 -6 9 16 13 15 44 -9 19 -14 32 -30 29 -35 -3 -5 1 -9 8 -9 7
0 22 -7 32 -15 16 -12 17 -17 5 -32 -11 -15 -11 -16 1 -5 19 16 30 15 30 -4 0
-8 -4 -13 -8 -10 -4 2 -8 -4 -9 -14 -1 -11 2 -22 8 -25 5 -3 6 0 3 8 -9 25 20
38 45 21 17 -13 20 -19 10 -30 -10 -12 -7 -14 12 -12 18 2 24 -2 23 -15 -2
-14 1 -15 12 -6 12 10 13 9 8 -6 -5 -12 -4 -16 3 -12 6 4 14 -4 17 -18 5 -18
13 -25 31 -25 14 0 25 -5 25 -11 0 -5 6 -7 13 -3 9 6 9 5 0 -7 -12 -15 -12
-43 0 -55 3 -4 4 5 1 20 -3 20 -1 24 11 20 8 -3 12 -10 9 -15 -3 -5 2 -9 10
-9 9 0 16 -4 16 -10 0 -5 6 -9 13 -7 7 1 11 -6 9 -17 -2 -12 1 -16 9 -11 7 5
10 3 7 -6 -3 -8 -12 -13 -19 -11 -8 2 -10 0 -6 -4 11 -11 38 -14 31 -3 -3 5 3
9 14 9 22 0 47 -42 38 -65 -3 -10 -2 -14 5 -10 6 4 20 -1 31 -12 12 -10 18
-12 14 -5 -4 7 -2 12 5 12 7 0 9 -8 6 -21 -4 -15 -2 -18 7 -10 14 12 30 3 39
-24 7 -20 7 -20 -8 -1 -11 15 -18 17 -25 8 -6 -6 -7 -10 -3 -7 3 3 17 -4 29
-16 16 -15 24 -17 29 -8 6 8 4 10 -5 4 -9 -6 -11 -4 -5 4 5 10 10 10 19 1 8
-8 6 -15 -9 -27 -19 -15 -19 -15 4 -8 18 6 22 4 15 -6 -6 -11 -4 -11 10 0 15
12 17 12 14 0 -2 -8 3 -13 12 -11 10 1 9 -3 -5 -14 -18 -15 -18 -16 -1 -10 12
4 25 -1 37 -15 11 -12 19 -19 19 -16 0 4 17 -12 38 -35 20 -24 41 -46 46 -49
5 -4 6 -11 2 -17 -3 -6 -1 -14 5 -18 7 -4 9 -3 6 3 -4 6 0 13 8 17 8 3 15 11
15 17 0 7 8 18 18 26 11 10 12 12 2 8 -13 -6 -13 -5 0 7 8 7 15 18 15 23 1 18
29 70 52 95 13 14 23 29 23 35 0 5 -5 3 -10 -5 -5 -8 -10 -10 -10 -5 0 19 36
65 45 58 5 -5 4 -1 -2 7 -9 11 -8 20 3 34 20 28 17 59 -6 74 -11 7 -20 20 -19
30 0 10 3 12 6 5 2 -7 9 -13 14 -13 5 0 2 11 -7 26 -10 14 -23 23 -31 20 -16
-6 -46 18 -36 28 4 3 -1 6 -10 6 -9 0 -23 13 -32 30 -9 16 -18 30 -21 30 -3 0
-2 -6 2 -12 5 -10 3 -10 -7 0 -12 11 -12 14 1 23 13 9 13 10 0 8 -29 -3 -41 1
-35 11 3 6 -1 10 -10 10 -9 0 -13 5 -10 10 3 5 2 10 -4 10 -14 0 -60 47 -53
54 3 3 0 6 -7 6 -7 0 -28 15 -46 33 -17 17 -62 58 -98 91 -37 32 -64 63 -60
69 3 6 1 7 -5 3 -7 -4 -23 4 -37 18 -14 15 -28 26 -30 26 -12 0 -54 44 -49 52
3 4 -3 8 -13 8 -10 0 -25 9 -33 19 -7 11 -17 18 -22 15 -4 -3 -8 2 -8 11 0 9
-4 13 -10 10 -5 -3 -10 1 -10 10 0 9 -4 14 -9 10 -12 -7 -43 24 -36 36 4 5 0
6 -8 3 -8 -3 -26 6 -40 20 -15 14 -31 26 -36 26 -5 0 -17 10 -25 22 -9 12 -16
19 -16 15 0 -5 -7 -2 -15 5 -33 30 -45 38 -55 38 -5 0 -10 3 -10 8 0 4 -20 20
-45 35 -25 16 -45 33 -45 39 0 5 -5 6 -10 3 -5 -3 -10 -1 -10 4 0 6 -7 11 -15
11 -8 0 -15 5 -15 10 0 6 -6 10 -13 10 -7 0 -19 9 -27 19 -7 11 -17 18 -22 15
-4 -3 -8 -1 -8 5 0 5 -10 13 -22 17 -13 4 -25 9 -28 13 -11 14 -80 62 -80 55
0 -3 -7 -1 -15 6 -8 7 -12 17 -8 24 3 6 3 8 -2 4 -7 -6 -59 16 -75 32 -3 3
-17 11 -32 19 -15 8 -24 19 -21 25 3 6 3 8 -2 4 -7 -7 -64 17 -75 31 -3 4 -22
15 -42 24 -21 10 -38 22 -38 28 0 6 -4 8 -9 5 -5 -3 -14 1 -21 9 -7 8 -16 15
-21 15 -5 0 -43 20 -85 45 -41 25 -80 45 -85 45 -5 0 -9 5 -9 10 0 6 -9 10
-19 10 -11 0 -21 3 -23 8 -1 4 -34 23 -73 42 -38 19 -72 37 -75 40 -3 4 -20
12 -37 19 -18 7 -31 16 -29 20 2 3 -6 7 -19 7 -13 1 -36 11 -52 22 -15 10 -45
25 -65 33 -21 7 -38 17 -38 21 0 4 -3 7 -8 7 -19 -4 -71 24 -65 34 3 7 3 9 -1
5 -10 -9 -66 11 -66 24 0 5 -4 7 -9 3 -6 -3 -26 4 -46 15 -19 11 -42 20 -50
20 -8 0 -15 5 -15 10 0 6 -7 10 -15 10 -8 0 -23 4 -33 9 -27 15 -96 45 -107
47 -5 1 -32 12 -60 24 -27 12 -59 25 -70 30 -68 29 -181 68 -187 64 -5 -3 -8
-20 -8 -39 0 -18 -6 -36 -12 -38 -7 -3 -4 -6 6 -6 20 -1 20 -1 0 -17 -10 -8
-13 -13 -6 -9 7 4 12 0 12 -9 0 -9 -6 -16 -12 -16 -9 0 -8 -4 2 -10 13 -9 13
-11 0 -20 -10 -6 -11 -10 -2 -10 16 0 16 -42 0 -59 -10 -11 -10 -12 -1 -7 9 5
12 -1 11 -18 -3 -29 -6 -30 -45 -14 -15 6 -30 12 -33 12 -3 1 -11 5 -17 9 -7
5 -13 6 -13 2 0 -3 -14 2 -31 11 -17 9 -43 18 -57 20 -14 3 -30 8 -36 12 -6 3
-15 8 -21 9 -26 6 -41 10 -55 15 -36 14 -189 59 -232 69 -26 6 -46 14 -43 18
2 4 -9 5 -26 3 -16 -2 -29 0 -29 5 0 6 -11 9 -25 8 -14 -2 -27 1 -31 6 -3 5
-10 7 -15 4 -5 -4 -9 -2 -9 2 0 5 -8 9 -17 9 -17 1 -48 7 -98 18 -11 3 -51 12
-90 21 -38 9 -90 18 -115 21 -25 3 -47 9 -50 12 -3 4 -27 9 -55 11 -27 2 -52
6 -55 10 -3 3 -21 7 -40 8 -19 1 -58 4 -87 7 l-52 6 -11 -43z m510 -599 c0 -6
-3 -8 -7 -5 -3 4 -12 2 -20 -4 -10 -9 -13 -8 -13 3 0 7 9 14 20 15 11 1 20 -3
20 -9z m783 -142 c9 1 17 -3 17 -9 0 -7 5 -5 10 3 8 13 10 13 10 -2 0 -11 -7
-16 -20 -15 -11 1 -20 5 -20 9 0 4 -5 7 -11 6 -6 -2 -14 4 -16 12 -3 10 -2 11
4 4 4 -6 16 -10 26 -8z m2412 -1075 c-6 -5 -25 10 -25 20 0 5 6 4 14 -3 8 -7
12 -15 11 -17z m645 -61 c0 -5 -4 -10 -10 -10 -5 0 -10 5 -10 10 0 6 5 10 10
10 6 0 10 -4 10 -10z m-420 -146 c0 -3 -7 -1 -15 6 -8 7 -15 17 -15 22 0 5 7
3 15 -6 8 -8 15 -18 15 -22z"/>
<path d="M2715 3729 c-4 -6 -4 -13 -1 -16 3 -4 6 -1 6 5 0 7 3 12 8 12 12 0
67 -51 65 -61 -2 -4 4 -6 12 -3 8 4 15 7 15 8 0 4 -88 66 -94 66 -2 0 -8 -5
-11 -11z"/>
<path d="M2730 3700 c0 -5 5 -10 11 -10 5 0 7 5 4 10 -3 6 -8 10 -11 10 -2 0
-4 -4 -4 -10z"/>
<path d="M2817 3645 c-4 -8 -3 -16 1 -19 4 -3 9 4 9 15 2 23 -3 25 -10 4z"/>
<path d="M2854 3638 c-4 -7 -4 -10 1 -6 4 4 14 0 22 -10 13 -15 13 -15 3 6
-12 25 -16 27 -26 10z"/>
<path d="M2914 3605 c11 -8 25 -15 30 -15 6 0 4 -5 -4 -11 -13 -9 -13 -10 0
-6 8 2 24 0 35 -5 l20 -9 -20 16 c-11 9 -33 23 -50 31 -27 14 -28 14 -11 -1z"/>
<path d="M3050 3523 c0 -15 18 -35 27 -32 5 2 1 12 -9 22 -10 9 -18 14 -18 10z"/>
<path d="M3026 3502 c-3 -5 1 -9 9 -9 8 0 12 4 9 9 -3 4 -7 8 -9 8 -2 0 -6 -4
-9 -8z"/>
<path d="M3096 3475 c-3 -8 -1 -15 4 -15 6 0 10 7 10 15 0 8 -2 15 -4 15 -2 0
-6 -7 -10 -15z"/>
<path d="M3125 3450 c-3 -6 1 -7 9 -4 18 7 21 14 7 14 -6 0 -13 -4 -16 -10z"/>
<path d="M3193 3385 c0 -8 4 -12 9 -9 4 3 8 9 8 15 0 5 -4 9 -8 9 -5 0 -9 -7
-9 -15z"/>
<path d="M3296 3303 c-6 -14 -5 -15 5 -6 7 7 10 15 7 18 -3 3 -9 -2 -12 -12z"/>
<path d="M3326 3311 c-5 -7 -5 -15 -2 -18 3 -4 6 -1 6 5 0 7 9 3 20 -8 11 -11
26 -20 33 -20 6 0 3 6 -8 12 -11 6 -25 18 -31 26 -8 11 -13 12 -18 3z"/>
<path d="M3420 3225 c-7 -9 -8 -15 -2 -15 5 0 12 7 16 15 3 8 4 15 2 15 -2 0
-9 -7 -16 -15z"/>
<path d="M470 3180 c0 -6 7 -10 15 -10 8 0 15 2 15 4 0 2 -7 6 -15 10 -8 3
-15 1 -15 -4z"/>
<path d="M3456 3181 c-3 -4 6 -8 20 -9 13 -1 24 0 24 2 0 7 -40 14 -44 7z"/>
<path d="M450 3171 c0 -6 4 -13 10 -16 6 -3 7 1 4 9 -7 18 -14 21 -14 7z"/>
<path d="M705 3170 c-4 -6 -10 -8 -15 -5 -5 3 -11 1 -14 -4 -5 -8 15 -8 34 -1
3 1 9 2 13 1 5 -1 6 3 2 9 -8 13 -12 13 -20 0z"/>
<path d="M510 3160 c0 -5 5 -10 11 -10 5 0 7 5 4 10 -3 6 -8 10 -11 10 -2 0
-4 -4 -4 -10z"/>
<path d="M550 3161 c0 -6 4 -12 8 -15 5 -3 9 1 9 9 0 8 -4 15 -9 15 -4 0 -8
-4 -8 -9z"/>
<path d="M740 3161 c0 -6 5 -11 11 -11 5 0 7 -5 4 -11 -4 -6 2 -5 13 2 12 7
18 18 15 23 -4 6 -8 5 -11 -2 -3 -10 -7 -10 -18 -1 -10 8 -14 8 -14 0z"/>
<path d="M3514 3162 c3 -6 0 -13 -6 -16 -9 -4 -8 -5 2 -5 8 1 22 1 30 0 13 -1
13 -2 0 -12 -13 -9 -13 -10 0 -6 8 2 21 -3 28 -12 11 -14 12 -13 3 5 -6 12
-22 29 -37 39 -14 9 -24 12 -20 7z"/>
<path d="M796 3143 c-6 -14 -5 -15 5 -6 7 7 10 15 7 18 -3 3 -9 -2 -12 -12z"/>
<path d="M715 3140 c3 -5 8 -10 11 -10 2 0 4 5 4 10 0 6 -5 10 -11 10 -5 0 -7
-4 -4 -10z"/>
<path d="M953 3130 c1 -13 5 -16 11 -10 17 17 29 11 15 -7 -12 -16 -12 -17 2
-6 9 7 18 12 20 10 3 -1 -4 6 -14 16 -25 22 -36 22 -34 -3z"/>
<path d="M865 3120 c-3 -6 1 -7 9 -4 18 7 21 14 7 14 -6 0 -13 -4 -16 -10z"/>
<path d="M920 3119 c0 -5 5 -7 10 -4 6 3 10 8 10 11 0 2 -4 4 -10 4 -5 0 -10
-5 -10 -11z"/>
<path d="M1054 3119 c-2 -4 4 -6 13 -4 10 1 25 -1 34 -6 8 -4 22 -3 30 3 11 8
11 9 -3 4 -10 -3 -18 -2 -18 2 0 10 -50 10 -56 1z"/>
<path d="M1953 3115 c0 -8 4 -12 9 -9 5 3 6 10 3 15 -9 13 -12 11 -12 -6z"/>
<path d="M2050 3110 c0 -5 5 -10 11 -10 5 0 7 5 4 10 -3 6 -8 10 -11 10 -2 0
-4 -4 -4 -10z"/>
<path d="M1204 3103 c4 -4 16 -8 28 -10 28 -4 18 6 -12 12 -12 2 -20 1 -16 -2z"/>
<path d="M2107 3090 c3 -11 9 -22 13 -25 5 -3 6 4 3 15 -3 11 -9 22 -13 25 -5
3 -6 -4 -3 -15z"/>
<path d="M3536 3102 c-3 -5 1 -9 9 -9 8 0 12 4 9 9 -3 4 -7 8 -9 8 -2 0 -6 -4
-9 -8z"/>
<path d="M1135 3089 c-4 -6 -5 -12 -2 -15 2 -3 7 2 10 11 7 17 1 20 -8 4z"/>
<path d="M2075 3091 c-3 -5 -2 -12 3 -15 5 -3 9 1 9 9 0 17 -3 19 -12 6z"/>
<path d="M1290 3080 c0 -5 5 -10 11 -10 5 0 7 5 4 10 -3 6 -8 10 -11 10 -2 0
-4 -4 -4 -10z"/>
<path d="M3565 3080 c-3 -6 1 -7 9 -4 18 7 21 14 7 14 -6 0 -13 -4 -16 -10z"/>
<path d="M1350 3071 c0 -6 4 -13 10 -16 6 -3 7 1 4 9 -7 18 -14 21 -14 7z"/>
<path d="M1380 3059 c0 -5 9 -9 20 -9 11 0 20 2 20 4 0 2 -9 6 -20 9 -11 3
-20 1 -20 -4z"/>
<path d="M1433 3048 c0 -13 1 -17 4 -10 3 6 9 10 14 7 5 -4 6 1 3 9 -9 23 -20
19 -21 -6z"/>
<path d="M3590 3058 c0 -4 4 -8 9 -8 6 0 12 4 15 8 3 5 -1 9 -9 9 -8 0 -15 -4
-15 -9z"/>
<path d="M3646 3047 c3 -10 9 -15 12 -12 3 3 0 11 -7 18 -10 9 -11 8 -5 -6z"/>
<path d="M1493 3036 c1 -12 10 -20 23 -21 16 -1 20 3 16 18 -5 18 -5 18 -15 1
-10 -17 -11 -17 -19 1 -7 19 -8 19 -5 1z"/>
<path d="M2310 3031 c0 -5 7 -12 16 -15 8 -3 12 -10 9 -16 -3 -5 -1 -10 4 -10
18 0 12 24 -9 38 -11 7 -20 8 -20 3z"/>
<path d="M1559 2993 c-13 -16 -12 -17 4 -4 9 7 17 15 17 17 0 8 -8 3 -21 -13z"/>
<path d="M3690 3001 c0 -5 7 -12 16 -15 14 -5 15 -4 4 9 -14 17 -20 19 -20 6z"/>
<path d="M2400 2985 c-7 -9 -8 -15 -2 -15 5 0 12 7 16 15 3 8 4 15 2 15 -2 0
-9 -7 -16 -15z"/>
<path d="M1753 2983 c4 -3 1 -13 -6 -22 -10 -14 -10 -14 4 -4 9 7 20 9 25 5 4
-4 2 1 -5 11 -7 9 -16 17 -19 17 -3 0 -2 -3 1 -7z"/>
<path d="M1796 2965 c4 -8 11 -15 16 -15 6 0 5 6 -2 15 -7 8 -14 15 -16 15 -2
0 -1 -7 2 -15z"/>
<path d="M2421 2964 c0 -11 3 -14 6 -6 3 7 2 16 -1 19 -3 4 -6 -2 -5 -13z"/>
<path d="M2467 2959 c7 -9 10 -19 6 -22 -3 -4 -2 -7 4 -7 6 0 14 8 17 17 4 10
4 14 0 10 -4 -4 -14 -1 -23 6 -14 10 -14 10 -4 -4z"/>
<path d="M3713 2955 c0 -8 4 -12 9 -9 5 3 6 10 3 15 -9 13 -12 11 -12 -6z"/>
<path d="M1837 2943 c3 -7 6 -13 8 -13 2 0 5 6 8 13 3 8 -1 14 -8 14 -7 0 -11
-6 -8 -14z"/>
<path d="M1775 2940 c3 -5 8 -10 11 -10 2 0 4 5 4 10 0 6 -5 10 -11 10 -5 0
-7 -4 -4 -10z"/>
<path d="M1855 2920 c-3 -6 1 -7 9 -4 18 7 21 14 7 14 -6 0 -13 -4 -16 -10z"/>
<path d="M1890 2922 c0 -5 7 -9 15 -9 8 0 12 4 9 9 -3 4 -9 8 -15 8 -5 0 -9
-4 -9 -8z"/>
<path d="M2669 2868 c-12 -8 -12 -9 1 -5 15 4 43 -16 34 -25 -2 -3 5 -4 16 -3
11 1 23 5 27 10 5 4 3 5 -3 2 -7 -4 -23 2 -36 12 -18 14 -28 17 -39 9z"/>
<path d="M2826 2802 c-3 -6 -1 -14 5 -17 15 -10 25 3 12 16 -7 7 -13 7 -17 1z"/>
<path d="M3915 2760 c-3 -6 1 -7 9 -4 18 7 21 14 7 14 -6 0 -13 -4 -16 -10z"/>
<path d="M3955 2759 c-4 -6 -5 -12 -2 -15 2 -3 7 2 10 11 7 17 1 20 -8 4z"/>
<path d="M2915 2730 c-3 -6 1 -7 9 -4 18 7 21 14 7 14 -6 0 -13 -4 -16 -10z"/>
<path d="M4959 2718 c-5 -18 -6 -38 -1 -34 7 8 12 36 6 36 -2 0 -4 -1 -5 -2z"/>
<path d="M3010 2700 c0 -5 5 -10 11 -10 5 0 7 -5 3 -12 -4 -7 -3 -8 5 -4 9 6
9 11 0 22 -14 17 -19 18 -19 4z"/>
<path d="M2976 2687 c3 -10 9 -15 12 -12 3 3 0 11 -7 18 -10 9 -11 8 -5 -6z"/>
<path d="M2298 2641 c-3 -17 -1 -31 4 -31 13 0 9 -38 -4 -43 -7 -3 -4 -6 6 -6
20 -1 20 -1 0 -17 -10 -8 -14 -13 -8 -10 7 3 15 -2 20 -12 11 -26 11 -36 0
-51 -8 -11 -8 -13 2 -7 8 4 13 1 14 -11 2 -33 3 -38 11 -50 5 -8 3 -13 -4 -13
-10 0 -10 -3 -1 -12 17 -17 15 -28 -4 -28 -9 0 -12 5 -8 13 5 8 2 8 -9 -2 -9
-7 -17 -9 -17 -4 0 5 -11 10 -24 11 -13 1 -50 9 -82 18 -33 9 -68 17 -79 19
-11 2 -20 4 -20 5 0 2 -36 10 -65 14 -14 2 -45 9 -70 14 -25 6 -58 13 -75 16
-16 3 -46 8 -65 12 -19 3 -48 7 -65 9 -16 2 -48 6 -70 10 -22 3 -58 8 -80 10
-22 2 -65 7 -95 10 -30 4 -77 8 -105 9 -27 0 -55 5 -62 9 -6 4 -14 4 -17 -1
-3 -5 -27 -6 -53 -3 -90 11 -592 -1 -613 -14 -6 -4 -10 0 -10 7 0 8 -3 9 -8 3
-4 -5 -25 -10 -47 -11 -22 0 -51 -4 -64 -8 -18 -6 -22 -5 -16 5 6 11 5 12 -5
2 -11 -10 -17 -10 -29 0 -12 9 -13 9 -7 0 5 -10 -3 -13 -31 -14 -21 0 -47 -2
-58 -4 -11 -2 -36 -5 -55 -6 -33 -2 -36 -5 -35 -36 0 -18 3 -33 8 -33 4 0 7
-5 7 -11 0 -5 -4 -8 -8 -5 -5 3 -9 -1 -9 -9 0 -8 5 -11 10 -8 6 4 8 -5 5 -21
-3 -14 -1 -26 4 -26 6 0 8 -6 5 -14 -3 -8 -1 -17 6 -19 9 -3 8 -9 -3 -22 -9
-11 -10 -16 -3 -11 12 7 18 -5 14 -28 -1 -4 2 -13 7 -20 5 -6 12 -19 16 -30 5
-14 3 -17 -10 -12 -14 5 -15 4 -5 -8 7 -8 8 -16 4 -18 -4 -3 -3 -3 4 -2 16 4
20 -4 24 -46 2 -19 12 -50 22 -69 13 -24 15 -36 7 -46 -8 -10 -8 -15 1 -21 8
-5 9 -3 4 6 -5 9 -4 11 4 6 7 -5 9 -16 5 -28 -4 -13 -2 -18 4 -14 5 3 12 -3
15 -14 3 -13 1 -18 -6 -14 -7 3 -5 0 4 -8 24 -20 28 -41 10 -63 -15 -18 -15
-19 1 -7 14 11 18 10 26 -5 7 -12 7 -25 -1 -38 -9 -18 -9 -19 6 -6 12 9 17 10
17 2 0 -7 5 -9 11 -6 5 4 29 9 52 12 23 2 47 9 53 14 9 7 17 3 27 -11 12 -18
15 -19 21 -5 4 10 2 14 -6 9 -6 -4 -8 -3 -5 3 6 10 28 14 84 15 15 0 20 4 16
12 -4 6 5 3 19 -6 17 -11 29 -14 33 -8 4 6 10 8 15 5 5 -3 11 -1 14 4 7 11
-13 9 -31 -2 -8 -5 -13 -4 -13 2 0 6 5 12 10 12 20 3 25 4 37 12 8 5 11 -2 8
-25 l-3 -33 14 33 c14 33 32 46 20 15 -4 -10 -4 -14 0 -10 4 4 14 1 23 -6 14
-10 14 -10 3 4 -10 13 -9 19 5 30 11 9 14 10 9 2 -4 -7 -2 -21 3 -30 6 -10 11
-13 11 -7 0 12 39 11 62 -1 7 -3 5 0 -5 8 -9 8 -29 13 -43 11 -20 -2 -23 0
-14 11 8 10 26 12 56 9 29 -3 43 -1 39 6 -3 5 -1 10 4 10 14 0 14 -13 1 -26
-6 -6 -2 -10 12 -11 16 -2 19 0 9 6 -11 7 -11 10 0 17 21 13 49 15 49 5 0 -6
-9 -8 -21 -6 -17 4 -19 2 -9 -11 9 -10 16 -11 25 -4 17 14 38 9 47 -10 6 -11
7 -10 5 5 -1 11 -7 20 -14 20 -6 0 -15 4 -20 9 -5 5 4 6 20 2 16 -4 26 -3 24
1 -6 10 104 10 120 0 6 -4 15 -2 19 4 5 8 3 9 -6 4 -9 -5 -11 -4 -6 3 5 9 13
9 27 2 14 -8 19 -7 19 2 0 10 2 10 8 1 6 -9 47 -12 47 -3 0 7 47 5 52 -3 3 -5
9 -3 14 4 7 12 9 12 9 0 0 -11 3 -11 17 0 11 10 14 10 9 2 -5 -9 0 -13 14 -13
12 0 19 4 16 9 -9 15 21 7 41 -11 19 -16 56 -21 47 -6 -3 5 -11 7 -17 6 -7 -2
-13 2 -14 7 0 6 4 8 10 6 7 -2 35 -5 62 -5 l50 -1 0 37 c0 20 -3 34 -7 31 -5
-2 -9 3 -9 11 -1 16 -4 28 -9 44 -1 4 -2 11 -1 16 1 4 -4 14 -10 22 -9 11 -9
14 1 14 10 0 10 3 0 15 -7 8 -9 15 -4 15 5 0 2 5 -6 10 -11 7 -6 8 17 5 18 -2
35 1 38 6 4 5 14 5 25 -1 13 -7 21 -7 25 0 4 7 11 7 18 2 7 -5 22 -8 35 -6 14
2 25 -2 28 -11 4 -8 10 -15 16 -15 5 0 7 4 4 9 -3 5 3 11 14 14 20 5 46 -24
33 -37 -3 -3 -1 -6 5 -6 7 0 12 4 12 10 0 5 10 8 23 6 15 -2 21 -9 19 -22 -2
-11 -1 -16 2 -13 4 4 8 15 10 26 4 17 -1 20 -28 18 -20 -1 -33 3 -33 11 0 8 6
10 16 5 9 -4 28 -7 44 -6 15 1 27 -3 26 -9 -3 -22 1 -36 9 -36 5 0 9 7 9 15 0
8 -5 11 -10 8 -6 -3 -7 -1 -3 6 4 6 12 9 17 6 5 -4 9 0 9 7 0 10 2 10 9 -1 6
-8 20 -12 39 -9 17 2 29 1 27 -3 -3 -3 16 -6 40 -4 25 1 48 -2 51 -7 3 -4 10
-5 16 -2 7 5 9 1 5 -9 -3 -10 -2 -17 3 -17 6 0 10 7 10 16 0 8 5 12 10 9 6 -4
8 -11 5 -16 -6 -9 7 -13 40 -9 16 2 17 0 6 -14 -7 -9 -18 -13 -24 -9 -6 4 -7
1 -3 -6 6 -9 13 -8 27 5 15 13 16 20 8 31 -9 11 -9 12 4 7 8 -3 18 -12 21 -20
6 -16 26 -19 26 -3 0 5 -4 7 -10 4 -5 -3 -10 -1 -10 4 0 13 17 14 24 2 3 -4
17 -7 31 -6 14 2 23 -1 20 -5 -3 -5 -12 -7 -19 -4 -7 3 -18 -1 -24 -9 -9 -11
-8 -14 3 -14 8 0 12 4 9 9 -3 4 0 8 5 8 6 0 11 -6 11 -12 0 -9 3 -8 10 2 8 13
11 12 25 -5 16 -20 16 -19 5 3 -9 18 -8 22 4 22 8 0 18 -5 22 -12 5 -7 2 -8
-7 -3 -11 6 -11 5 -3 -4 6 -7 23 -14 37 -15 19 -2 24 1 20 13 -4 14 -3 14 6 1
6 -8 11 -11 11 -7 0 4 9 3 20 -3 15 -8 20 -8 20 2 0 9 3 9 10 -2 5 -8 10 -11
10 -6 0 5 7 3 15 -4 8 -7 15 -9 15 -6 0 4 9 2 20 -4 12 -6 17 -17 14 -28 -3
-9 2 -6 10 8 8 14 15 20 16 13 0 -7 6 -10 14 -7 8 3 17 0 21 -5 3 -6 11 -8 17
-5 6 4 9 3 6 -2 -3 -5 3 -17 13 -26 15 -14 18 -14 23 -2 6 15 36 16 46 2 6 -7
39 -16 68 -17 7 -1 10 -6 6 -12 -10 -16 16 -29 40 -20 25 9 56 3 56 -10 0 -11
-23 -7 -32 6 -12 15 -10 -7 2 -25 6 -10 10 -11 10 -3 0 7 3 12 8 12 4 -1 9 0
12 1 19 7 41 7 46 -1 3 -5 9 -7 14 -4 4 3 13 -2 20 -10 6 -7 18 -11 26 -8 8 3
14 0 14 -7 0 -6 5 -8 11 -4 8 5 8 1 0 -14 -17 -32 -13 -37 9 -11 12 15 19 19
20 10 0 -7 6 -11 15 -8 19 8 31 -13 14 -24 -9 -6 -3 -8 19 -4 30 5 37 -1 33
-27 0 -5 4 -8 10 -8 6 0 8 9 4 23 -4 14 -3 18 3 9 5 -7 13 -12 18 -11 5 1 12
0 17 -1 4 -1 13 -3 20 -4 6 0 13 -7 13 -13 3 -26 5 -28 14 -13 6 10 10 11 10
3 0 -7 3 -13 8 -12 18 3 51 -14 45 -24 -4 -6 0 -8 10 -4 9 3 19 2 22 -4 4 -5
10 -7 14 -5 10 7 7 -26 -4 -44 -8 -13 -6 -13 10 0 10 8 19 13 21 10 1 -3 6 -1
11 4 4 5 3 6 -4 2 -6 -3 -14 -2 -18 4 -3 5 1 10 9 10 8 0 18 -5 21 -10 4 -6
11 -7 17 -4 7 4 8 2 4 -4 -5 -8 2 -12 19 -12 19 0 26 -4 22 -14 -4 -9 0 -12
11 -10 9 2 25 -2 35 -10 16 -12 17 -18 6 -38 l-12 -23 20 20 c11 11 18 25 16
30 -3 6 5 -1 16 -14 12 -13 21 -20 21 -16 0 4 6 2 13 -4 8 -6 18 -7 22 -3 5 4
5 1 1 -5 -4 -7 -2 -13 4 -13 7 0 9 -9 5 -22 l-6 -23 14 23 c7 12 16 20 20 16
4 -4 1 -14 -6 -22 -10 -13 -9 -14 11 -3 15 8 22 8 22 1 0 -6 4 -8 10 -5 6 4 7
-1 3 -12 -6 -16 -5 -16 10 -4 11 9 17 10 17 2 0 -6 7 -11 15 -11 8 0 15 -4 15
-10 0 -5 6 -10 14 -10 8 0 17 -4 20 -9 9 -14 -18 -7 -46 11 -17 11 -29 13 -39
6 -11 -8 -11 -9 3 -4 10 3 21 -1 26 -10 5 -9 13 -17 18 -17 5 -1 8 -6 6 -10
-1 -5 3 -5 10 -1 20 13 48 15 48 4 0 -6 -4 -10 -10 -10 -5 0 -10 -5 -10 -11 0
-5 4 -8 9 -4 6 3 14 -3 20 -12 8 -14 10 -15 11 -3 0 13 1 13 11 0 8 -11 9 -9
3 10 -6 23 -6 23 10 7 10 -10 14 -22 10 -29 -5 -8 0 -7 11 2 17 14 18 13 12
-2 -7 -20 8 -34 19 -17 5 8 3 9 -6 4 -9 -6 -11 -4 -6 4 9 13 21 6 21 -12 0 -7
8 -11 18 -9 9 2 17 -2 17 -8 0 -6 -4 -9 -9 -5 -5 3 -12 1 -15 -4 -4 -5 5 -8
19 -6 16 1 25 -3 25 -12 0 -8 4 -12 9 -9 4 3 17 -2 27 -10 10 -9 13 -12 5 -8
-10 5 -12 3 -7 -5 5 -7 14 -10 21 -7 7 2 16 -2 19 -10 3 -9 10 -13 15 -10 5 3
12 -1 15 -10 3 -8 10 -13 15 -9 5 3 17 -5 25 -17 9 -12 16 -18 16 -13 0 11 25
-12 26 -26 3 -22 5 -23 14 -9 7 11 10 11 10 2 0 -7 4 -10 10 -7 6 4 7 -1 3
-11 -4 -10 -2 -15 3 -11 13 8 41 -10 31 -20 -5 -4 -12 -1 -17 7 -6 9 -10 10
-10 3 0 -18 19 -26 34 -14 9 8 19 4 36 -14 23 -24 24 -24 37 -6 7 11 21 18 30
17 10 -2 12 -1 6 1 -18 6 -16 23 2 23 8 0 15 5 15 11 0 5 -5 7 -11 3 -7 -4 7
19 31 50 27 35 46 53 50 46 5 -8 9 -7 13 4 4 9 3 15 -1 15 -18 -3 -22 2 -12
13 6 7 20 28 31 46 11 18 23 30 28 27 5 -3 13 0 17 6 4 8 3 9 -4 5 -7 -4 -12
-3 -12 3 0 5 5 13 10 16 12 7 9 50 -5 62 -4 4 -5 2 -1 -4 5 -9 2 -11 -9 -7
-11 5 -13 10 -5 19 9 11 6 12 -11 8 -15 -4 -20 -3 -15 5 4 7 1 12 -6 12 -7 0
-33 18 -58 40 -25 22 -48 40 -52 40 -5 0 -8 7 -8 16 0 8 -4 13 -9 10 -5 -3
-23 7 -40 24 -18 16 -33 28 -34 28 -7 -5 -56 36 -51 43 3 5 2 8 -3 7 -12 -3
-48 18 -79 47 -15 14 -31 25 -36 25 -14 0 -38 27 -30 34 3 4 -1 4 -9 1 -9 -3
-23 3 -34 15 -10 11 -24 20 -32 20 -7 0 -13 3 -13 8 0 4 -16 16 -35 26 -19 10
-32 23 -29 28 3 5 2 8 -3 7 -13 -4 -63 23 -63 33 0 5 -4 7 -9 3 -6 -3 -14 3
-20 12 -6 10 -11 14 -11 10 0 -11 -60 25 -60 36 0 4 -4 5 -10 2 -5 -3 -10 -3
-10 2 0 4 -13 14 -29 21 -16 7 -39 21 -51 32 -12 11 -27 17 -31 14 -5 -3 -9
-1 -9 4 0 5 -8 12 -17 16 -10 3 -25 10 -33 15 -49 31 -96 56 -103 53 -4 -1
-10 5 -13 13 -4 8 -11 15 -18 15 -6 0 -81 36 -166 80 -85 44 -170 85 -187 92
-18 7 -33 16 -33 20 0 4 -3 7 -7 6 -17 -3 -64 23 -58 32 3 6 -1 7 -10 4 -8 -4
-39 5 -68 19 -67 31 -90 41 -99 39 -5 -1 -8 2 -8 8 0 6 -3 9 -7 8 -14 -4 -122
45 -117 54 3 4 -1 5 -9 3 -15 -6 -82 19 -92 35 -4 6 -10 8 -15 5 -5 -3 -21 0
-37 7 -15 6 -31 11 -35 10 -5 -1 -8 2 -8 6 0 5 -6 9 -12 10 -23 2 -45 9 -118
39 -8 3 -22 7 -30 8 -8 1 -22 6 -31 9 -13 6 -18 0 -21 -23z m-28 -595 c0 -3
-4 -8 -10 -11 -5 -3 -10 -1 -10 4 0 6 5 11 10 11 6 0 10 -2 10 -4z m210 -40
c0 -3 -4 -8 -10 -11 -5 -3 -10 -1 -10 4 0 6 5 11 10 11 6 0 10 -2 10 -4z m270
-76 c0 -5 -2 -10 -4 -10 -3 0 -8 5 -11 10 -3 6 -1 10 4 10 6 0 11 -4 11 -10z
m155 -39 c3 -5 1 -12 -5 -16 -5 -3 -10 1 -10 9 0 18 6 21 15 7z m985 -487 c0
-8 -5 -12 -10 -9 -6 4 -8 11 -5 16 9 14 15 11 15 -7z"/>
<path d="M3140 2600 c8 -5 20 -10 25 -10 6 0 3 5 -5 10 -8 5 -19 10 -25 10 -5
0 -3 -5 5 -10z"/>
<path d="M3180 2600 c0 -6 7 -13 15 -16 8 -4 15 -10 15 -16 0 -5 -4 -7 -8 -4
-5 3 -9 -2 -9 -11 0 -13 4 -11 18 6 l17 21 19 -23 c22 -28 55 -43 46 -22 -3 8
-8 13 -13 10 -4 -2 -17 7 -30 20 -13 13 -26 22 -31 20 -4 -3 -15 2 -23 11 -9
8 -16 10 -16 4z"/>
<path d="M2295 2500 c3 -5 8 -10 11 -10 2 0 4 5 4 10 0 6 -5 10 -11 10 -5 0
-7 -4 -4 -10z"/>
<path d="M3354 2488 c-4 -6 -3 -8 4 -4 6 3 18 -4 26 -16 9 -12 16 -18 16 -13
0 6 5 3 10 -5 5 -8 10 -10 10 -4 0 18 -58 55 -66 42z"/>
<path d="M3344 2462 c4 -3 14 -7 22 -8 9 -1 13 0 10 4 -4 3 -14 7 -22 8 -9 1
-13 0 -10 -4z"/>
<path d="M2306 2442 c-3 -5 1 -9 9 -9 8 0 12 4 9 9 -3 4 -7 8 -9 8 -2 0 -6 -4
-9 -8z"/>
<path d="M4346 2347 c3 -10 9 -15 12 -12 3 3 0 11 -7 18 -10 9 -11 8 -5 -6z"/>
<path d="M3530 2340 c0 -5 5 -10 11 -10 5 0 7 5 4 10 -3 6 -8 10 -11 10 -2 0
-4 -4 -4 -10z"/>
<path d="M4315 2340 c-3 -5 -1 -10 4 -10 6 0 11 5 11 10 0 6 -2 10 -4 10 -3 0
-8 -4 -11 -10z"/>
<path d="M3635 2271 c-3 -5 -2 -12 3 -15 5 -3 9 1 9 9 0 17 -3 19 -12 6z"/>
<path d="M3714 2242 c3 -5 0 -13 -6 -15 -9 -4 -10 -6 -1 -6 17 -1 25 16 12 25
-7 4 -9 3 -5 -4z"/>
<path d="M4436 2233 c-6 -14 -5 -15 5 -6 7 7 10 15 7 18 -3 3 -9 -2 -12 -12z"/>
<path d="M4458 2208 c5 -5 16 -8 23 -6 8 3 3 7 -10 11 -17 4 -21 3 -13 -5z"/>
<path d="M3700 2206 c0 -2 8 -10 18 -17 15 -13 16 -12 3 4 -13 16 -21 21 -21
13z"/>
<path d="M4416 2202 c-3 -5 1 -9 9 -9 8 0 12 4 9 9 -3 4 -7 8 -9 8 -2 0 -6 -4
-9 -8z"/>
<path d="M3790 2181 c0 -6 4 -11 10 -11 5 0 7 -7 4 -15 -4 -8 -4 -15 -1 -15
13 0 14 30 1 40 -10 9 -14 9 -14 1z"/>
<path d="M4467 2159 c7 -7 15 -10 18 -7 3 3 -2 9 -12 12 -14 6 -15 5 -6 -5z"/>
<path d="M3825 2149 c-10 -15 3 -25 16 -12 7 7 7 13 1 17 -6 3 -14 1 -17 -5z"/>
<path d="M4530 2141 c0 -5 7 -12 16 -15 14 -5 15 -4 4 9 -14 17 -20 19 -20 6z"/>
<path d="M340 2120 c0 -5 5 -10 11 -10 5 0 7 5 4 10 -3 6 -8 10 -11 10 -2 0
-4 -4 -4 -10z"/>
<path d="M3867 2109 c6 -6 9 -19 6 -28 -4 -14 -3 -14 6 -1 15 21 14 27 -6 35
-14 5 -15 3 -6 -6z"/>
<path d="M4515 2110 c-3 -6 1 -7 9 -4 18 7 21 14 7 14 -6 0 -13 -4 -16 -10z"/>
<path d="M4553 2096 c3 -8 2 -17 -4 -20 -5 -2 -4 -3 2 -2 15 3 21 36 7 36 -6
0 -8 -6 -5 -14z"/>
<path d="M1696 2092 c-10 -16 9 -30 21 -17 10 10 9 14 -2 19 -8 3 -16 2 -19
-2z"/>
<path d="M1747 2093 c-12 -12 -7 -22 11 -22 23 0 44 -5 62 -16 12 -7 13 -6 3
7 -7 8 -9 19 -5 24 4 4 -1 2 -10 -5 -15 -11 -18 -11 -18 -1 0 8 -3 10 -7 7 -3
-4 -11 -2 -18 3 -7 5 -15 7 -18 3z"/>
<path d="M1670 2075 c0 -8 4 -15 10 -15 5 0 7 7 4 15 -4 8 -8 15 -10 15 -2 0
-4 -7 -4 -15z"/>
<path d="M1862 2070 c-7 -11 -8 -20 -3 -20 9 0 24 30 18 36 -1 2 -8 -6 -15
-16z"/>
<path d="M4576 2072 c-3 -5 1 -9 9 -9 8 0 12 4 9 9 -3 4 -7 8 -9 8 -2 0 -6 -4
-9 -8z"/>
<path d="M2024 2050 c0 -13 4 -16 10 -10 7 7 7 13 0 20 -6 6 -10 3 -10 -10z"/>
<path d="M2061 2038 c-13 -22 -13 -23 6 -5 11 9 23 14 28 10 4 -5 5 -2 1 5
-10 18 -19 15 -35 -10z"/>
<path d="M2113 2043 c0 -9 4 -10 11 -3 17 17 29 11 15 -7 -12 -16 -12 -17 2
-5 9 7 24 9 34 6 12 -5 16 -3 13 6 -6 19 -75 21 -75 3z"/>
<path d="M3940 2056 c0 -2 7 -9 15 -16 9 -7 15 -8 15 -2 0 5 -7 12 -15 16 -8
3 -15 4 -15 2z"/>
<path d="M1678 2043 c7 -3 16 -2 19 1 4 3 -2 6 -13 5 -11 0 -14 -3 -6 -6z"/>
<path d="M366 2002 c-2 -4 4 -8 14 -8 10 0 16 4 14 8 -3 4 -9 8 -14 8 -5 0
-11 -4 -14 -8z"/>
<path d="M2510 1982 c0 -15 39 -22 47 -9 3 7 3 9 -2 5 -4 -4 -16 -3 -26 3 -11
5 -19 6 -19 1z"/>
<path d="M4650 1960 c0 -11 4 -20 8 -20 4 0 8 9 8 20 0 11 -4 20 -8 20 -4 0
-8 -9 -8 -20z"/>
<path d="M2576 1955 c5 -11 1 -14 -12 -9 -15 5 -16 4 -4 -4 8 -6 18 -8 22 -6
11 7 10 34 -2 34 -5 0 -7 -7 -4 -15z"/>
<path d="M2603 1949 c-2 -23 3 -25 10 -4 4 8 3 16 -1 19 -4 3 -9 -4 -9 -15z"/>
<path d="M4006 1962 c-3 -5 1 -9 9 -9 8 0 12 4 9 9 -3 4 -7 8 -9 8 -2 0 -6 -4
-9 -8z"/>
<path d="M2650 1937 c0 -5 6 -7 14 -4 17 7 39 -16 28 -28 -4 -5 -1 -5 5 -1 10
5 10 11 1 26 -12 18 -48 24 -48 7z"/>
<path d="M4687 1939 c7 -9 10 -19 6 -22 -3 -4 -1 -7 5 -7 17 0 15 16 -5 31
-16 12 -17 12 -6 -2z"/>
<path d="M4846 1918 c3 -5 10 -6 15 -3 13 9 11 12 -6 12 -8 0 -12 -4 -9 -9z"/>
<path d="M2765 1909 c-4 -6 -5 -12 -2 -15 2 -3 7 2 10 11 7 17 1 20 -8 4z"/>
<path d="M2786 1902 c-3 -4 4 -9 15 -9 23 -2 25 3 4 10 -8 4 -16 3 -19 -1z"/>
<path d="M2835 1889 c-4 -6 -4 -13 -1 -16 3 -4 6 -1 6 6 0 7 5 9 12 5 7 -4 8
-3 4 4 -9 15 -13 15 -21 1z"/>
<path d="M1375 1871 c-11 -10 -4 -20 15 -18 26 2 34 23 8 23 -10 0 -21 -2 -23
-5z"/>
<path d="M1506 1864 c-11 -8 -16 -14 -10 -14 13 0 39 18 34 24 -3 2 -14 -2
-24 -10z"/>
<path d="M1165 1862 c-10 -7 -18 -32 -10 -32 2 0 9 9 15 20 12 22 11 24 -5 12z"/>
<path d="M1195 1859 c-4 -6 -5 -12 -2 -15 2 -3 7 2 10 11 7 17 1 20 -8 4z"/>
<path d="M1215 1852 c-8 -21 -3 -22 17 -2 14 13 15 17 3 17 -8 0 -17 -7 -20
-15z"/>
<path d="M1295 1861 c3 -6 14 -9 25 -8 23 2 17 10 -11 14 -11 2 -18 -1 -14 -6z"/>
<path d="M1444 1848 c0 -17 2 -17 12 -4 6 9 13 15 15 13 2 -1 3 0 1 2 -8 14
-28 6 -28 -11z"/>
<path d="M1610 1861 c0 -6 4 -13 10 -16 6 -3 7 1 4 9 -7 18 -14 21 -14 7z"/>
<path d="M1240 1840 c-12 -7 -10 -9 8 -7 12 0 22 5 22 9 0 11 -12 10 -30 -2z"/>
<path d="M1531 1847 c2 -1 13 -9 24 -17 19 -14 19 -14 6 3 -7 9 -18 17 -24 17
-6 0 -8 -1 -6 -3z"/>
<path d="M2985 1842 c4 -4 12 -7 18 -7 7 -1 11 -7 9 -14 -1 -7 2 -10 8 -6 5 3
10 1 10 -4 0 -6 8 -11 18 -11 13 0 14 2 4 9 -8 4 -13 12 -13 17 1 5 -3 10 -9
10 -5 1 -11 2 -12 4 -8 5 -39 7 -33 2z"/>
<path d="M2960 1826 c0 -2 7 -7 16 -10 8 -3 12 -2 9 4 -6 10 -25 14 -25 6z"/>
<path d="M4784 1822 c4 -3 14 -7 22 -8 9 -1 13 0 10 4 -4 3 -14 7 -22 8 -9 1
-13 0 -10 -4z"/>
<path d="M453 1805 c0 -8 4 -12 9 -9 5 3 6 10 3 15 -9 13 -12 11 -12 -6z"/>
<path d="M3073 1799 c-2 -23 3 -25 10 -4 4 8 3 16 -1 19 -4 3 -9 -4 -9 -15z"/>
<path d="M710 1800 c0 -5 7 -10 16 -10 9 0 12 -5 8 -12 -4 -7 -3 -8 4 -4 16
10 15 14 -8 26 -14 7 -20 7 -20 0z"/>
<path d="M595 1780 c-17 -18 -17 -20 -2 -14 9 3 17 10 17 16 0 5 5 6 12 2 7
-4 8 -3 4 4 -9 16 -10 15 -31 -8z"/>
<path d="M4233 1785 c0 -8 4 -12 8 -9 4 2 10 -2 12 -8 4 -8 6 -9 6 -2 1 6 -5
17 -12 23 -10 8 -14 7 -14 -4z"/>
<path d="M670 1786 c0 -2 9 -6 20 -9 11 -3 18 -1 14 4 -5 9 -34 13 -34 5z"/>
<path d="M3116 1782 c-3 -5 1 -9 9 -9 8 0 12 4 9 9 -3 4 -7 8 -9 8 -2 0 -6 -4
-9 -8z"/>
<path d="M514 1768 c-4 -7 -4 -10 1 -6 4 4 15 2 24 -5 14 -11 14 -10 2 6 -16
20 -18 21 -27 5z"/>
<path d="M556 1765 c4 -8 8 -15 10 -15 2 0 4 7 4 15 0 8 -4 15 -10 15 -5 0 -7
-7 -4 -15z"/>
<path d="M3244 1736 c-4 -9 -4 -20 0 -23 3 -4 6 2 6 12 0 14 3 15 14 6 11 -9
16 -9 22 1 4 7 4 10 -1 6 -4 -4 -14 -3 -21 3 -11 9 -15 7 -20 -5z"/>
<path d="M3310 1698 c0 -4 4 -8 9 -8 6 0 12 4 15 8 3 5 -1 9 -9 9 -8 0 -15 -4
-15 -9z"/>
<path d="M4290 1700 c0 -5 5 -10 11 -10 5 0 7 5 4 10 -3 6 -8 10 -11 10 -2 0
-4 -4 -4 -10z"/>
<path d="M2116 1682 c-4 -4 -22 -8 -39 -8 -69 -3 -66 -1 -57 -35 5 -18 7 -36
4 -40 -3 -5 0 -9 5 -9 6 0 11 -5 11 -11 0 -5 -6 -7 -12 -3 -10 6 -10 5 -1 -8
7 -8 10 -18 6 -21 -3 -4 0 -7 8 -7 12 0 11 -2 -1 -10 -13 -8 -13 -11 -1 -22
12 -11 13 -10 6 2 -5 8 -4 11 0 7 5 -4 10 -13 11 -20 1 -7 4 -24 7 -38 4 -18
1 -26 -9 -26 -8 0 -14 5 -14 11 0 7 -3 7 -8 -1 -5 -8 -49 -13 -130 -15 -67 -2
-122 -5 -122 -8 0 -3 -21 -5 -48 -6 -26 -1 -56 -5 -66 -9 -15 -7 -17 -5 -11 6
7 11 6 12 -6 2 -18 -14 -70 -20 -88 -9 -10 6 -12 5 -7 -2 5 -8 -2 -13 -21 -14
-27 -1 -43 -3 -53 -8 -3 -1 -16 -4 -30 -6 -65 -9 -91 -14 -175 -35 -49 -12
-102 -22 -117 -23 -14 -1 -24 -4 -22 -7 3 -6 -81 -28 -118 -32 -10 -1 -18 -4
-18 -8 0 -4 -15 -10 -32 -14 -18 -4 -40 -9 -48 -12 -8 -2 -21 -5 -27 -5 -7 -1
-13 -5 -13 -10 0 -4 -3 -7 -8 -6 -18 5 -50 -14 -55 -32 -3 -11 -1 -18 3 -15 5
3 19 -9 31 -27 13 -18 27 -35 32 -36 4 -2 3 -10 -4 -18 -7 -8 -9 -17 -5 -21 3
-3 6 -1 6 5 0 7 4 12 10 12 5 0 7 -8 3 -17 -3 -10 -3 -15 1 -11 4 3 21 -5 37
-19 21 -19 26 -30 19 -39 -8 -9 -6 -12 7 -10 10 0 17 -5 16 -11 -2 -7 4 -13
11 -13 19 0 66 -61 67 -86 0 -18 1 -18 9 1 7 17 9 17 9 3 1 -10 4 -17 9 -17
19 3 23 -2 13 -15 -8 -10 -9 -16 -1 -21 6 -3 7 -12 3 -18 -4 -7 1 -6 10 2 10
8 19 12 20 10 22 -30 34 -57 31 -72 -1 -9 1 -15 6 -12 10 6 8 24 -9 53 -8 16
3 9 33 -19 41 -39 62 -70 36 -54 -5 3 -10 1 -10 -4 0 -6 5 -11 11 -11 5 0 8
-4 5 -8 -3 -5 1 -9 9 -9 8 0 15 4 15 9 0 4 -5 8 -11 8 -5 0 -7 5 -4 10 4 6 12
4 22 -5 13 -13 13 -18 1 -33 -12 -15 -11 -16 5 -3 9 8 21 11 24 7 4 -4 3 -10
-2 -14 -6 -4 -11 -14 -12 -22 -2 -9 4 -5 13 8 16 21 18 22 35 6 11 -10 19 -22
19 -28 -1 -6 -10 0 -22 14 -12 14 -19 18 -15 9 3 -9 0 -23 -6 -30 -10 -11 -9
-11 5 0 15 11 19 11 24 -3 6 -15 8 -15 21 1 8 10 12 12 8 6 -6 -12 6 -17 21
-10 3 1 10 -6 16 -17 8 -14 7 -21 -3 -27 -8 -5 -9 -9 -3 -9 5 0 14 4 20 9 5 6
16 4 28 -5 11 -7 16 -17 12 -21 -4 -4 -11 -1 -16 7 -6 9 -10 10 -10 3 0 -19
20 -26 35 -13 14 12 19 7 16 -14 -1 -5 5 -6 13 -3 8 3 20 -1 26 -9 7 -8 19
-14 26 -14 8 0 14 -4 14 -9 0 -4 -10 -7 -22 -6 -13 1 -15 0 -5 -2 9 -2 17 -10
17 -16 0 -7 4 -6 10 3 5 8 12 11 16 7 4 -3 1 -13 -5 -21 -8 -10 -9 -16 -1 -21
6 -4 9 -1 8 7 -2 7 8 14 21 16 23 4 23 3 8 -13 -20 -19 -23 -32 -4 -17 14 12
57 12 57 0 0 -4 7 -8 15 -8 8 0 15 -5 15 -10 0 -6 -14 -4 -31 5 -17 9 -33 15
-35 13 -2 -3 12 -12 31 -21 21 -10 37 -12 40 -7 14 22 77 -31 69 -58 -5 -14
-4 -14 4 -2 6 8 8 19 4 25 -3 5 1 4 10 -2 8 -7 18 -10 22 -6 4 4 11 1 16 -7 5
-8 14 -16 20 -16 5 -1 15 -2 21 -3 8 -1 7 -7 -2 -18 -13 -15 -12 -15 9 -4 12
6 22 8 22 3 0 -4 10 -8 22 -9 11 -1 24 -6 27 -10 6 -8 13 -10 49 -16 25 -4 47
-19 61 -42 11 -19 12 -18 6 5 -4 14 -3 21 2 15 8 -10 28 -17 51 -18 6 0 12 -4
12 -8 0 -4 9 -8 20 -8 11 -1 29 -1 41 -2 15 0 20 -5 16 -18 -3 -11 2 -17 14
-18 11 -1 19 3 19 8 0 6 -6 7 -12 3 -7 -4 -9 -3 -5 1 11 12 38 15 31 4 -3 -6
5 -8 20 -5 15 3 24 1 21 -5 -4 -5 -11 -6 -17 -3 -7 4 -8 2 -4 -4 4 -8 14 -9
24 -4 27 13 47 8 46 -11 -1 -9 3 -14 8 -11 5 3 16 -2 24 -12 12 -17 13 -17 8
-1 -4 10 -1 17 6 17 6 0 9 4 6 9 -4 5 2 8 11 6 10 -2 18 -4 18 -5 0 -1 13 -4
29 -6 16 -3 38 -15 48 -26 10 -12 18 -17 18 -12 0 6 -6 16 -12 23 -11 10 -10
12 2 9 8 -2 18 -7 22 -13 5 -6 8 -4 8 5 0 9 9 2 21 -15 12 -16 19 -22 15 -12
-5 15 3 20 30 16 4 0 11 5 15 13 5 7 9 8 9 3 0 -6 13 -11 30 -11 18 -1 27 2
23 9 -4 6 -1 7 8 1 21 -12 59 -13 59 0 0 7 3 7 8 1 11 -15 32 -17 32 -2 0 8 3
8 9 -2 8 -13 12 -13 27 0 15 13 16 12 10 -11 -5 -17 -4 -21 2 -11 8 11 10 11
15 0 4 -11 6 -11 6 -1 1 7 5 11 10 7 5 -3 17 2 25 11 9 8 16 11 16 6 0 -13 27
-23 45 -16 8 4 15 11 15 17 0 7 -4 7 -12 -1 -16 -16 -25 -15 -31 2 -4 11 3 13
34 10 23 -2 38 0 35 5 -3 5 8 8 24 7 17 -1 30 2 30 6 0 5 14 6 31 3 19 -4 28
-2 24 5 -3 6 0 7 9 4 9 -3 16 -2 16 3 0 5 14 7 31 5 24 -4 30 -2 24 8 -5 8 -4
11 3 6 6 -3 13 -2 16 3 4 5 14 8 24 7 9 -2 21 2 25 8 6 7 7 5 4 -6 -3 -9 0
-19 8 -22 9 -3 12 0 8 11 -3 8 0 19 8 24 17 11 45 12 35 1 -4 -4 -12 -7 -17
-7 -5 0 -9 -3 -9 -7 0 -5 0 -11 0 -15 0 -3 9 2 19 11 10 10 34 18 52 18 19 1
28 3 21 5 -6 3 -9 9 -6 15 4 5 -3 5 -16 -2 -12 -6 -24 -9 -27 -6 -5 5 9 12 64
31 7 2 23 -6 35 -18 l22 -22 -17 28 c-18 27 -11 37 11 15 7 -7 12 -8 12 -2 0
5 5 2 10 -6 7 -12 9 -10 7 7 -1 17 -4 19 -14 11 -8 -7 -13 -7 -13 0 0 16 26
22 40 9 10 -9 12 -8 7 5 -4 12 1 19 16 24 12 4 25 12 29 18 6 8 8 7 8 -1 0 -7
5 -13 10 -13 6 0 10 6 10 14 0 12 13 22 40 31 3 1 18 7 33 13 38 16 42 15 26
-5 -13 -17 -12 -17 6 -2 11 9 27 19 35 23 8 3 5 4 -7 2 -13 -2 -26 1 -30 7 -3
7 -3 9 2 5 4 -4 14 0 22 10 8 9 11 11 8 4 -6 -11 -3 -11 13 -1 12 7 18 17 15
23 -3 5 -1 6 6 2 7 -4 19 2 30 15 14 17 20 19 26 9 5 -9 4 -11 -3 -6 -17 10
-15 1 4 -14 12 -11 15 -11 12 1 -2 8 3 13 10 11 6 -1 12 3 12 9 0 6 -7 9 -15
5 -19 -7 -19 1 1 21 12 13 18 13 27 3 9 -10 9 -11 -2 -5 -10 6 -12 4 -7 -4 6
-9 12 -9 25 3 10 9 20 14 23 11 3 -3 8 1 11 9 4 9 1 18 -5 22 -6 4 -8 3 -5 -3
4 -6 0 -13 -8 -17 -25 -9 -24 8 3 28 14 11 23 15 19 10 -3 -6 4 -16 16 -24 20
-12 21 -12 8 3 -18 22 -7 54 13 38 12 -10 14 -8 9 11 -3 17 -2 19 5 9 8 -11
11 -9 17 8 3 11 13 21 21 21 9 0 12 5 8 13 -4 6 -4 9 0 5 11 -9 35 15 28 27
-3 6 2 3 13 -5 17 -14 17 -13 10 8 -6 22 -5 23 17 11 20 -11 22 -10 10 3 -10
13 -10 17 3 22 9 3 13 11 9 17 -5 8 -3 9 5 5 7 -5 10 -15 7 -23 -4 -8 -1 -11
5 -8 6 4 8 13 5 21 -3 7 4 23 15 36 11 13 18 17 14 11 -3 -7 -1 -13 4 -13 6 0
11 7 11 15 0 9 17 33 37 53 21 20 31 28 23 17 -14 -18 -13 -19 1 -8 9 7 19 9
24 5 4 -4 3 3 -3 14 -9 18 -7 25 12 43 12 11 27 21 34 21 6 0 14 4 17 10 4 6
-1 7 -12 3 -15 -6 -16 -5 -3 9 8 9 18 14 23 11 4 -2 7 3 7 11 0 9 5 16 10 16
6 0 10 6 10 14 0 8 7 22 16 30 13 13 13 16 1 16 -8 0 -20 7 -27 16 -8 8 -9 14
-4 12 5 -2 10 0 12 5 5 16 1 19 -12 8 -17 -14 -46 -4 -47 18 0 10 -2 11 -6 3
-2 -6 -9 -9 -14 -6 -6 3 -5 12 3 22 8 10 9 13 1 9 -6 -4 -14 -3 -18 3 -4 6
-11 8 -16 5 -5 -4 -9 -1 -9 4 0 6 5 11 11 11 5 0 7 5 3 11 -5 8 -10 6 -16 -5
-10 -18 -2 -39 13 -31 5 4 9 1 9 -4 0 -6 -3 -11 -6 -11 -8 0 -67 42 -75 53 -3
5 -10 9 -15 9 -40 2 -65 31 -41 49 5 3 2 9 -6 12 -12 4 -15 0 -12 -14 3 -15 0
-19 -13 -17 -9 3 -16 10 -14 17 1 7 -2 10 -7 7 -12 -8 -91 23 -91 36 0 5 -4 6
-10 3 -5 -3 -10 -1 -10 5 0 6 -4 8 -10 5 -5 -3 -10 -1 -10 5 0 6 -4 9 -9 6 -5
-3 -22 1 -37 9 -16 8 -35 15 -42 15 -7 0 -10 5 -6 12 4 7 3 8 -4 4 -6 -4 -31
2 -54 12 -42 19 -154 62 -173 67 -5 1 -17 5 -25 8 -40 15 -102 34 -121 36 -5
0 -8 5 -5 10 4 5 -2 7 -12 4 -10 -2 -31 1 -47 8 -17 6 -37 13 -45 14 -67 11
-195 48 -202 59 -5 8 -8 7 -8 -2 0 -7 -5 -10 -10 -7 -6 4 -23 9 -38 11 -15 3
-36 7 -47 9 -11 3 -33 7 -50 11 -16 3 -37 8 -45 11 -15 6 -22 7 -112 16 -26 3
-53 9 -59 13 -6 4 -32 7 -58 7 -25 0 -50 2 -55 5 -5 3 -28 7 -50 9 -117 10
-148 12 -231 19 -49 3 -115 6 -145 6 -30 0 -60 4 -66 9 -6 5 -14 5 -18 1z
m-996 -836 c0 -11 -19 -15 -25 -6 -3 5 1 10 9 10 9 0 16 -2 16 -4z m1240 -666
c0 -5 -2 -10 -4 -10 -3 0 -8 5 -11 10 -3 6 -1 10 4 10 6 0 11 -4 11 -10z m210
-14 c0 -2 -7 -7 -16 -10 -8 -3 -12 -2 -9 4 6 10 25 14 25 6z m300 0 c0 -3 -4
-8 -10 -11 -5 -3 -10 -1 -10 4 0 6 5 11 10 11 6 0 10 -2 10 -4z"/>
<path d="M3335 1680 c-3 -5 -2 -10 4 -10 5 0 13 5 16 10 3 6 2 10 -4 10 -5 0
-13 -4 -16 -10z"/>
<path d="M4286 1658 c3 -5 10 -6 15 -3 13 9 11 12 -6 12 -8 0 -12 -4 -9 -9z"/>
<path d="M3395 1650 c3 -5 8 -10 11 -10 2 0 4 5 4 10 0 6 -5 10 -11 10 -5 0
-7 -4 -4 -10z"/>
<path d="M3460 1619 c0 -5 5 -7 10 -4 6 3 10 8 10 11 0 2 -4 4 -10 4 -5 0 -10
-5 -10 -11z"/>
<path d="M4350 1619 c0 -5 5 -7 10 -4 6 3 10 8 10 11 0 2 -4 4 -10 4 -5 0 -10
-5 -10 -11z"/>
<path d="M3495 1610 c3 -5 8 -10 11 -10 2 0 4 5 4 10 0 6 -5 10 -11 10 -5 0
-7 -4 -4 -10z"/>
<path d="M3547 1589 c10 -10 10 -16 0 -28 -11 -14 -10 -14 6 -2 9 7 17 17 17
21 0 4 -8 11 -17 15 -14 5 -15 4 -6 -6z"/>
<path d="M3505 1580 c-3 -6 1 -7 9 -4 18 7 21 14 7 14 -6 0 -13 -4 -16 -10z"/>
<path d="M4410 1576 c0 -2 8 -10 18 -17 15 -13 16 -12 3 4 -13 16 -21 21 -21
13z"/>
<path d="M4680 1571 c0 -6 4 -13 10 -16 6 -3 7 1 4 9 -7 18 -14 21 -14 7z"/>
<path d="M4450 1560 c0 -5 6 -9 13 -7 6 1 11 -4 9 -11 -1 -8 1 -11 6 -8 4 2
14 1 22 -4 12 -7 12 -12 2 -22 -9 -9 -12 -9 -12 0 0 7 -8 12 -17 12 -15 0 -14
-2 3 -14 16 -13 21 -13 34 0 13 13 11 17 -15 39 -33 26 -45 31 -45 15z"/>
<path d="M3616 1533 c-6 -14 -5 -15 5 -6 7 7 10 15 7 18 -3 3 -9 -2 -12 -12z"/>
<path d="M3643 1533 c0 -11 7 -20 14 -20 10 0 10 4 1 16 -7 9 -13 18 -15 20
-1 2 -1 -5 0 -16z"/>
<path d="M4670 1540 c0 -5 5 -10 11 -10 5 0 7 5 4 10 -3 6 -8 10 -11 10 -2 0
-4 -4 -4 -10z"/>
<path d="M4523 1495 c-10 -10 -9 -14 3 -19 9 -3 12 -1 9 4 -3 6 -2 10 3 10 5
0 14 -10 20 -22 6 -13 11 -18 11 -12 1 7 -7 21 -16 32 -15 18 -20 19 -30 7z"/>
<path d="M3716 1482 c-3 -5 1 -9 9 -9 8 0 12 4 9 9 -3 4 -7 8 -9 8 -2 0 -6 -4
-9 -8z"/>
<path d="M4640 1480 c-9 -6 -10 -10 -3 -10 6 0 15 5 18 10 8 12 4 12 -15 0z"/>
<path d="M2030 1476 c0 -2 8 -10 18 -17 15 -13 16 -12 3 4 -13 16 -21 21 -21
13z"/>
<path d="M3915 1341 c-3 -5 -2 -12 3 -15 5 -3 9 1 9 9 0 17 -3 19 -12 6z"/>
<path d="M3946 1322 c-3 -5 1 -9 9 -9 8 0 15 4 15 9 0 4 -4 8 -9 8 -6 0 -12
-4 -15 -8z"/>
<path d="M4535 1320 c3 -5 8 -10 11 -10 2 0 4 5 4 10 0 6 -5 10 -11 10 -5 0
-7 -4 -4 -10z"/>
<path d="M4516 1294 c-3 -9 -4 -19 -1 -22 3 -3 5 1 5 9 0 11 2 11 10 -1 5 -8
10 -10 10 -5 0 6 -4 16 -9 23 -6 11 -10 10 -15 -4z"/>
<path d="M3996 1285 c3 -8 10 -13 14 -10 5 3 11 -1 13 -7 4 -10 6 -10 6 -1 1
7 -8 17 -19 23 -16 9 -18 8 -14 -5z"/>
<path d="M4093 1232 c1 -14 6 -21 14 -18 7 3 22 -7 33 -21 13 -17 24 -23 30
-17 7 7 5 17 -5 30 -15 19 -15 19 -9 -1 5 -18 4 -18 -14 3 -11 12 -25 22 -30
22 -6 0 -12 6 -15 13 -3 6 -4 2 -4 -11z"/>
<path d="M4439 1176 c-20 -27 -20 -29 -2 -13 11 9 23 14 27 10 4 -4 4 1 0 12
-7 17 -5 18 7 8 13 -10 16 -10 16 0 0 24 -25 15 -48 -17z"/>
<path d="M843 1125 c0 -8 6 -16 14 -19 11 -4 11 -1 3 14 -13 24 -17 25 -17 5z"/>
<path d="M4376 1073 c-6 -14 -5 -15 5 -6 7 7 10 15 7 18 -3 3 -9 -2 -12 -12z"/>
<path d="M4318 1073 c7 -3 16 -2 19 1 4 3 -2 6 -13 5 -11 0 -14 -3 -6 -6z"/>
<path d="M911 1037 c2 -1 13 -9 24 -17 19 -14 19 -14 6 3 -7 9 -18 17 -24 17
-6 0 -8 -1 -6 -3z"/>
<path d="M916 1007 c3 -10 9 -15 12 -12 3 3 0 11 -7 18 -10 9 -11 8 -5 -6z"/>
<path d="M990 951 c0 -5 7 -12 16 -15 14 -5 15 -4 4 9 -14 17 -20 19 -20 6z"/>
<path d="M990 920 c0 -6 7 -10 15 -10 8 0 15 2 15 4 0 2 -7 6 -15 10 -8 3 -15
1 -15 -4z"/>
<path d="M4220 905 c-10 -12 -8 -13 10 -10 29 6 34 11 16 18 -8 3 -20 0 -26
-8z"/>
<path d="M1055 851 c-3 -5 -2 -12 3 -15 5 -3 9 1 9 9 0 17 -3 19 -12 6z"/>
<path d="M4196 842 c-3 -5 1 -9 9 -9 8 0 12 4 9 9 -3 4 -7 8 -9 8 -2 0 -6 -4
-9 -8z"/>
<path d="M4146 812 c-3 -4 4 -9 15 -9 23 -2 25 3 4 10 -8 4 -16 3 -19 -1z"/>
<path d="M1110 801 c0 -6 4 -13 10 -16 6 -3 7 1 4 9 -7 18 -14 21 -14 7z"/>
<path d="M4103 767 c0 -8 6 -14 14 -14 9 0 10 4 2 14 -6 7 -12 13 -14 13 -1 0
-2 -6 -2 -13z"/>
<path d="M1183 757 c0 -8 6 -14 14 -14 9 0 10 4 2 14 -6 7 -12 13 -14 13 -1 0
-2 -6 -2 -13z"/>
<path d="M4036 673 c-6 -14 -5 -15 5 -6 7 7 10 15 7 18 -3 3 -9 -2 -12 -12z"/>
<path d="M3963 628 c-15 -20 -25 -38 -20 -38 3 0 12 11 21 25 17 26 16 35 -1
13z"/>
<path d="M1434 522 c4 -3 14 -7 22 -8 9 -1 13 0 10 4 -4 3 -14 7 -22 8 -9 1
-13 0 -10 -4z"/>
<path d="M1486 522 c-3 -5 1 -9 9 -9 8 0 12 4 9 9 -3 4 -7 8 -9 8 -2 0 -6 -4
-9 -8z"/>
<path d="M3753 471 c0 -11 5 -18 9 -15 4 3 5 11 1 19 -7 21 -12 19 -10 -4z"/>
<path d="M3710 440 c0 -5 5 -10 11 -10 5 0 7 5 4 10 -3 6 -8 10 -11 10 -2 0
-4 -4 -4 -10z"/>
<path d="M1702 391 c6 -11 16 -17 22 -14 5 4 7 -1 3 -11 -4 -10 -3 -15 3 -11
16 10 12 22 -15 39 -25 16 -25 16 -13 -3z"/>
<path d="M3617 393 c-10 -9 -9 -23 1 -23 5 0 9 7 9 15 0 17 -1 18 -10 8z"/>
<path d="M1670 386 c0 -2 7 -7 16 -10 8 -3 12 -2 9 4 -6 10 -25 14 -25 6z"/>
<path d="M3570 375 c-7 -9 -10 -18 -6 -22 3 -3 6 -1 6 6 0 9 6 9 23 1 20 -10
20 -10 5 3 -10 8 -15 17 -11 20 3 4 4 7 1 7 -3 0 -11 -7 -18 -15z"/>
<path d="M1783 353 c-7 -3 -13 -8 -13 -13 0 -10 24 -7 28 4 5 11 -1 14 -15 9z"/>
<path d="M3515 340 c-4 -6 -10 -8 -14 -6 -4 3 -8 -1 -8 -9 0 -20 13 -19 21 1
3 8 11 12 17 8 8 -4 9 -3 5 4 -9 15 -13 15 -21 2z"/>
<path d="M1821 331 c-8 -5 -9 -11 -3 -15 5 -3 12 1 16 9 6 17 6 18 -13 6z"/>
<path d="M1856 294 c-5 -14 -4 -15 9 -4 17 14 19 20 6 20 -5 0 -12 -7 -15 -16z"/>
<path d="M1900 277 c-12 -19 -11 -21 2 -10 8 7 18 10 21 6 4 -3 7 -1 7 5 0 21
-16 21 -30 -1z"/>
<path d="M1940 283 c0 -19 21 -27 33 -13 9 10 9 11 -2 5 -8 -4 -17 -2 -22 6
-6 9 -9 10 -9 2z"/>
<path d="M3375 281 c-6 -11 13 -26 22 -17 4 3 1 6 -6 6 -7 0 -9 5 -6 10 3 6 4
10 1 10 -3 0 -7 -4 -11 -9z"/>
<path d="M1998 267 c8 -9 11 -20 8 -25 -3 -5 1 -9 9 -9 16 0 4 31 -18 43 -8 6
-8 3 1 -9z"/>
<path d="M1976 243 c-6 -14 -5 -15 5 -6 7 7 10 15 7 18 -3 3 -9 -2 -12 -12z"/>
<path d="M2060 240 c0 -6 7 -10 15 -10 8 0 15 2 15 4 0 2 -7 6 -15 10 -8 3
-15 1 -15 -4z"/>
<path d="M2093 216 c-3 -5 -1 -6 5 -2 5 3 12 1 14 -5 2 -7 8 -7 15 3 10 11 8
14 -8 14 -11 0 -23 -5 -26 -10z"/>
<path d="M3185 212 c-8 -21 -3 -22 17 -2 14 13 15 17 3 17 -8 0 -17 -7 -20
-15z"/>
<path d="M3308 223 c7 -3 16 -2 19 1 4 3 -2 6 -13 5 -11 0 -14 -3 -6 -6z"/>
<path d="M2150 209 c0 -15 18 -19 23 -6 3 8 -1 14 -9 14 -8 0 -14 -4 -14 -8z"/>
<path d="M3215 200 c-3 -6 1 -7 9 -4 18 7 21 14 7 14 -6 0 -13 -4 -16 -10z"/>
<path d="M3096 187 c-14 -10 -15 -14 -4 -14 7 0 19 6 26 14 7 7 9 13 4 13 -4
0 -16 -6 -26 -13z"/>
<path d="M3144 184 c-18 -14 -18 -15 4 -4 12 6 22 13 22 15 0 8 -5 6 -26 -11z"/>
<path d="M2230 180 c0 -5 5 -10 10 -10 6 0 10 5 10 10 0 6 -4 10 -10 10 -5 0
-10 -4 -10 -10z"/>
<path d="M2271 170 c-21 -15 -21 -16 -2 -16 11 0 19 5 18 10 -1 6 3 10 10 11
17 0 26 12 9 12 -8 0 -24 -8 -35 -17z"/>
<path d="M3035 180 c-4 -6 -15 -8 -25 -5 -25 8 -36 -13 -17 -32 10 -10 17 -12
22 -4 3 6 1 10 -6 9 -6 -2 -14 3 -16 11 -4 9 0 11 13 7 20 -6 53 9 42 19 -3 4
-9 1 -13 -5z"/>
<path d="M2387 173 c-13 -13 -7 -20 18 -20 14 0 25 4 25 10 0 6 -3 7 -7 4 -3
-4 -11 -2 -18 3 -7 5 -15 7 -18 3z"/>
<path d="M3056 163 c-6 -14 -5 -15 5 -6 7 7 10 15 7 18 -3 3 -9 -2 -12 -12z"/>
<path d="M2607 133 c3 -8 9 -11 12 -6 9 13 31 10 41 -7 6 -9 10 -10 10 -3 0
15 -19 27 -47 29 -14 0 -19 -4 -16 -13z"/>
<path d="M2687 128 c19 -21 31 -25 14 -5 -6 8 -9 16 -6 19 3 2 -2 5 -10 5 -13
0 -13 -3 2 -19z"/>
<path d="M2710 145 c0 -5 5 -17 10 -25 5 -8 10 -10 10 -5 0 6 -5 17 -10 25 -5
8 -10 11 -10 5z"/>
<path d="M2736 138 c3 -5 10 -6 15 -3 13 9 11 12 -6 12 -8 0 -12 -4 -9 -9z"/>
<path d="M2777 139 c7 -7 15 -10 18 -7 3 3 -2 9 -12 12 -14 6 -15 5 -6 -5z"/>
<path d="M2433 125 c0 -8 4 -12 9 -9 5 3 6 10 3 15 -9 13 -12 11 -12 -6z"/>
<path d="M2507 127 c-3 -8 0 -14 7 -14 7 0 13 6 13 14 0 7 -4 13 -8 13 -4 0
-9 -6 -12 -13z"/>
</g>
</svg>
